<svg width="890" height="210" viewBox="0 0 890 210" fill="none" xmlns="http://www.w3.org/2000/svg">
<path d="M44.6 199.2L44.3738 199.646L44.379 199.649L44.6 199.2ZM12.5 169.2L12.0638 169.445L12.0684 169.452L12.5 169.2ZM9.8 74.7L9.33529 74.5154L9.33316 74.5209L9.8 74.7ZM34.1 36.3L33.7369 35.9563L33.7367 35.9565L34.1 36.3ZM71.3 10.2L71.5001 10.6582L71.5031 10.6569L71.3 10.2ZM147.5 3.89998L147.381 4.38569L147.384 4.38627L147.5 3.89998ZM175.4 15L175.894 15.077L175.948 14.7316L175.642 14.5625L175.4 15ZM168.2 61.2V61.7H168.628L168.694 61.277L168.2 61.2ZM165.2 61.2L164.724 61.3527L164.835 61.7H165.2V61.2ZM155 29.4L154.521 29.5447L154.524 29.5527L155 29.4ZM142.7 11.7L142.434 12.1231L142.443 12.1288L142.452 12.1341L142.7 11.7ZM80.6 21.3L80.9221 21.6824L80.9227 21.6819L80.6 21.3ZM53.9 61.8L54.3686 61.9744L54.3693 61.9726L53.9 61.8ZM58.7 181.5L58.2805 181.772L58.2849 181.779L58.7 181.5ZM119.3 198.9L119.043 198.471L119.035 198.476L119.3 198.9ZM132.5 185.1L132.074 184.838L132.074 184.839L132.5 185.1ZM154.7 149.1V148.6H154.421L154.274 148.838L154.7 149.1ZM157.7 149.1L158.194 149.178L158.285 148.6H157.7V149.1ZM150.5 194.7L150.746 195.135L150.956 195.017L150.994 194.778L150.5 194.7ZM125.3 205.2L125.161 204.719L125.148 204.724L125.3 205.2ZM93.5 208.9C74.7599 208.9 58.5387 205.511 44.821 198.751L44.379 199.649C58.2613 206.489 74.6401 209.9 93.5 209.9V208.9ZM44.8262 198.754C31.1093 191.796 20.4818 181.862 12.9316 168.948L12.0684 169.452C19.7182 182.538 30.4907 192.604 44.3738 199.646L44.8262 198.754ZM12.9361 168.955C5.58659 155.845 1.9 140.034 1.9 121.5H0.9C0.9 140.166 4.61341 156.155 12.0639 169.445L12.9361 168.955ZM1.9 121.5C1.9 104.957 4.69008 89.4185 10.2668 74.8791L9.33316 74.5209C3.70992 89.1815 0.9 104.843 0.9 121.5H1.9ZM10.2647 74.8846C16.0422 60.3412 24.1085 47.5957 34.4633 36.6435L33.7367 35.9565C23.2915 47.0043 15.1578 59.8587 9.33533 74.5154L10.2647 74.8846ZM34.4631 36.6437C45.0168 25.4927 57.3613 16.8315 71.5001 10.6582L71.0999 9.74177C56.8387 15.9685 44.3832 24.7073 33.7369 35.9563L34.4631 36.6437ZM71.5031 10.6569C85.8335 4.28782 101.563 1.09999 118.7 1.09999V0.0999901C101.437 0.0999901 85.5665 3.31216 71.0969 9.74309L71.5031 10.6569ZM118.7 1.09999C128.864 1.09999 138.424 2.19609 147.381 4.38568L147.619 3.41428C138.576 1.20389 128.936 0.0999901 118.7 0.0999901V1.09999ZM147.384 4.38627C156.534 6.57447 165.792 10.2565 175.158 15.4375L175.642 14.5625C166.208 9.34352 156.866 5.62552 147.616 3.41369L147.384 4.38627ZM174.906 14.923L167.706 61.123L168.694 61.277L175.894 15.077L174.906 14.923ZM168.2 60.7H165.2V61.7H168.2V60.7ZM165.676 61.0473L155.476 29.2473L154.524 29.5527L164.724 61.3527L165.676 61.0473ZM155.479 29.2553C152.856 20.5814 148.696 14.5507 142.948 11.2659L142.452 12.1341C147.904 15.2493 151.944 21.0186 154.521 29.5447L155.479 29.2553ZM142.966 11.2769C137.46 7.81004 130.157 6.09998 121.1 6.09998V7.09998C130.043 7.09998 137.14 8.78993 142.434 12.1231L142.966 11.2769ZM121.1 6.09998C105.584 6.09998 91.9689 11.0406 80.2773 20.918L80.9227 21.6819C92.4311 11.9593 105.816 7.09998 121.1 7.09998V6.09998ZM80.2779 20.9175C68.7971 30.5856 59.8535 44.1655 53.4307 61.6274L54.3693 61.9726C60.7465 44.6345 69.6029 31.2144 80.9221 21.6824L80.2779 20.9175ZM53.4314 61.6256C47.0063 78.8931 43.8 98.9544 43.8 121.8H44.8C44.8 99.0456 47.9937 79.1069 54.3686 61.9744L53.4314 61.6256ZM43.8 121.8C43.8 146.858 48.6103 166.864 58.2805 181.772L59.1195 181.228C49.5897 166.536 44.8 146.742 44.8 121.8H43.8ZM58.2849 181.779C68.1803 196.521 82.2381 203.9 100.4 203.9V202.9C82.5619 202.9 68.8197 195.679 59.1152 181.221L58.2849 181.779ZM100.4 203.9C108.26 203.9 114.661 202.389 119.565 199.324L119.035 198.476C114.339 201.411 108.14 202.9 100.4 202.9V203.9ZM119.557 199.329C124.641 196.278 129.094 191.613 132.926 185.361L132.074 184.839C128.306 190.987 123.959 195.522 119.043 198.471L119.557 199.329ZM132.926 185.362L155.126 149.362L154.274 148.838L132.074 184.838L132.926 185.362ZM154.7 149.6H157.7V148.6H154.7V149.6ZM157.206 149.022L150.006 194.622L150.994 194.778L158.194 149.178L157.206 149.022ZM150.254 194.265C142.49 198.645 134.126 202.13 125.161 204.72L125.439 205.68C134.474 203.07 142.91 199.555 150.746 195.135L150.254 194.265ZM125.148 204.724C116.411 207.504 105.865 208.9 93.5 208.9V209.9C105.935 209.9 116.589 208.496 125.452 205.676L125.148 204.724ZM189.183 202.5L188.963 202.949L188.972 202.953L189.183 202.5ZM168.783 183.9L168.353 184.156L168.356 184.16L168.783 183.9ZM167.583 115.5L167.115 115.323L167.113 115.33L167.583 115.5ZM185.883 84.6L186.261 84.9275L186.264 84.9233L185.883 84.6ZM213.183 63L213.406 63.4472L213.406 63.4472L213.183 63ZM275.283 61.5L275.055 61.945L275.061 61.9483L275.068 61.9514L275.283 61.5ZM295.083 79.8L294.651 80.0526L294.656 80.0603L295.083 79.8ZM295.983 147.9L295.514 147.725L295.513 147.73L295.983 147.9ZM277.983 179.1L277.601 178.777L277.601 178.777L277.983 179.1ZM250.983 200.7L251.21 201.145L251.213 201.144L250.983 200.7ZM238.083 194.1L237.711 193.766L237.71 193.767L238.083 194.1ZM251.583 171.3L252.046 171.487L252.048 171.484L251.583 171.3ZM260.283 139.8L260.775 139.886L260.776 139.885L260.283 139.8ZM258.183 70.8L258.624 70.5654L258.624 70.5654L258.183 70.8ZM227.283 69.6L226.923 69.2529L226.923 69.2529L227.283 69.6ZM213.183 92.1L213.643 92.2958L213.643 92.2958L213.183 92.1ZM203.883 123.3L204.374 123.395L204.374 123.395L203.883 123.3ZM206.583 192.9L206.155 193.159L206.159 193.165L206.583 192.9ZM217.683 208C207.349 208 197.921 206.013 189.394 202.047L188.972 202.953C197.644 206.987 207.217 209 217.683 209V208ZM189.402 202.051C180.888 197.893 174.16 191.758 169.21 183.64L168.356 184.16C173.405 192.442 180.277 198.707 188.963 202.949L189.402 202.051ZM169.212 183.644C164.271 175.342 161.783 164.837 161.783 152.1H160.783C160.783 164.963 163.295 175.658 168.353 184.156L169.212 183.644ZM161.783 152.1C161.783 139.356 163.873 127.214 168.053 115.67L167.113 115.33C162.892 126.986 160.783 139.244 160.783 152.1H161.783ZM168.05 115.677C172.43 104.13 178.501 93.8812 186.261 84.9275L185.505 84.2725C177.665 93.3188 171.535 103.67 167.115 115.323L168.05 115.677ZM186.264 84.9233C194.022 75.7729 203.069 68.6159 213.406 63.4472L212.959 62.5528C202.497 67.7841 193.343 75.0271 185.501 84.2766L186.264 84.9233ZM213.406 63.4472C223.734 58.2836 234.957 55.7 247.083 55.7V54.7C234.809 54.7 223.432 57.3163 212.959 62.5528L213.406 63.4472ZM247.083 55.7C257.616 55.7 266.935 57.7862 275.055 61.945L275.511 61.055C267.23 56.8137 257.75 54.7 247.083 54.7V55.7ZM275.068 61.9514C283.375 65.9074 289.901 71.9371 294.651 80.0526L295.514 79.5474C290.665 71.2629 283.99 65.0926 275.498 61.0486L275.068 61.9514ZM294.656 80.0603C299.595 88.1599 302.083 98.5621 302.083 111.3H303.083C303.083 98.4379 300.571 87.8401 295.51 79.5397L294.656 80.0603ZM302.083 111.3C302.083 123.84 299.893 135.981 295.514 147.725L296.451 148.075C300.872 136.219 303.083 123.96 303.083 111.3H302.083ZM295.513 147.73C291.332 159.275 285.362 169.623 277.601 178.777L278.364 179.423C286.204 170.177 292.233 159.725 296.453 148.07L295.513 147.73ZM277.601 178.777C270.043 187.728 261.094 194.887 250.752 200.256L251.213 201.144C261.671 195.713 270.723 188.472 278.365 179.423L277.601 178.777ZM250.756 200.255C240.629 205.417 229.608 208 217.683 208V209C229.758 209 240.936 206.383 251.21 201.145L250.756 200.255ZM221.283 203C227.655 203 233.383 200.115 238.456 194.433L237.71 193.767C232.783 199.285 227.311 202 221.283 202V203ZM238.455 194.434C243.703 188.58 248.231 180.926 252.046 171.487L251.119 171.113C247.335 180.474 242.862 188.02 237.711 193.766L238.455 194.434ZM252.048 171.484C255.862 161.849 258.77 151.316 260.775 139.886L259.79 139.714C257.796 151.084 254.904 161.551 251.118 171.116L252.048 171.484ZM260.776 139.885C262.78 128.258 263.783 116.729 263.783 105.3H262.783C262.783 116.671 261.785 128.142 259.79 139.715L260.776 139.885ZM263.783 105.3C263.783 88.6981 262.088 77.0851 258.624 70.5654L257.741 71.0346C261.078 77.3149 262.783 88.7019 262.783 105.3H263.783ZM258.624 70.5654C255.172 64.0665 250.631 60.7 244.983 60.7V61.7C250.135 61.7 254.394 64.7334 257.741 71.0346L258.624 70.5654ZM244.983 60.7C238.419 60.7 232.395 63.5778 226.923 69.2529L227.643 69.9471C232.97 64.4222 238.747 61.7 244.983 61.7V60.7ZM226.923 69.2529C221.47 74.9082 216.74 82.4647 212.723 91.9042L213.643 92.2958C217.626 82.9353 222.296 75.4918 227.643 69.9471L226.923 69.2529ZM212.723 91.9042C208.707 101.341 205.598 111.775 203.392 123.205L204.374 123.395C206.568 112.025 209.658 101.659 213.643 92.2958L212.723 91.9042ZM203.392 123.205C201.186 134.636 200.083 146.068 200.083 157.5H201.083C201.083 146.132 202.18 134.764 204.374 123.395L203.392 123.205ZM200.083 157.5C200.083 174.506 202.077 186.431 206.155 193.159L207.01 192.641C203.088 186.169 201.083 174.494 201.083 157.5H200.083ZM206.159 193.165C210.219 199.661 215.259 203 221.283 203V202C215.707 202 210.947 198.939 207.007 192.635L206.159 193.165ZM297.414 206.1L297.107 206.495L297.255 206.61L297.443 206.599L297.414 206.1ZM294.714 204L294.225 203.898L294.161 204.203L294.407 204.395L294.714 204ZM317.814 93.6L317.327 93.4875L317.325 93.4976L317.814 93.6ZM309.414 76.8L309.201 77.2524L309.205 77.2543L309.414 76.8ZM304.314 74.4L303.817 74.3502L303.781 74.7019L304.101 74.8524L304.314 74.4ZM304.614 71.4L304.472 70.9205L304.15 71.0158L304.117 71.3502L304.614 71.4ZM360.414 54.9L360.746 54.5263L360.539 54.3418L360.272 54.4205L360.414 54.9ZM363.114 57.3L363.605 57.3934L363.658 57.1147L363.446 56.9263L363.114 57.3ZM356.214 93.6L355.723 93.5066L355.382 95.3004L356.589 93.9306L356.214 93.6ZM388.014 65.7L388.28 66.1231L388.286 66.1196L388.014 65.7ZM434.514 61.2L434.169 61.5622L434.179 61.5708L434.514 61.2ZM439.614 92.4L440.106 92.4894L440.107 92.4857L439.614 92.4ZM436.614 106.2L436.129 106.079L436.129 106.079L436.614 106.2ZM420.714 170.1L421.199 170.221L421.199 170.221L420.714 170.1ZM418.914 178.2L419.404 178.298L419.406 178.289L418.914 178.2ZM444.714 176.4L445.068 176.046L444.706 175.685L444.353 176.055L444.714 176.4ZM447.714 179.4L448.128 179.68L448.359 179.338L448.068 179.046L447.714 179.4ZM385.314 204L384.982 204.374L384.988 204.379L384.994 204.384L385.314 204ZM381.414 177.9L381.902 178.011L381.903 178.006L381.414 177.9ZM384.714 163.8L385.199 163.921L385.199 163.921L384.714 163.8ZM396.414 117L396.899 117.121L396.899 117.121L396.414 117ZM400.314 99.9L400.804 99.9981L400.804 99.9981L400.314 99.9ZM399.414 78.6L399.061 78.9535L399.072 78.9653L399.085 78.9763L399.414 78.6ZM375.714 82.5L375.446 82.0781L375.44 82.082L375.714 82.5ZM354.414 102.3L354.036 101.973L353.953 102.068L353.926 102.192L354.414 102.3ZM346.014 140.1L345.526 139.992L345.525 139.998L346.014 140.1ZM339.714 171.9L339.223 171.807L339.223 171.807L339.714 171.9ZM333.714 204L333.743 204.499L334.134 204.477L334.206 204.091L333.714 204ZM297.721 205.705L295.021 203.605L294.407 204.395L297.107 206.495L297.721 205.705ZM295.203 204.102L318.303 93.7024L317.325 93.4976L294.225 203.898L295.203 204.102ZM318.301 93.7124C319.22 89.7313 318.976 86.2565 317.511 83.3264C316.047 80.3974 313.395 78.0787 309.623 76.3457L309.205 77.2543C312.833 78.9212 315.281 81.1025 316.617 83.7736C317.952 86.4435 318.208 89.6686 317.327 93.4876L318.301 93.7124ZM309.627 76.3476L304.527 73.9476L304.101 74.8524L309.201 77.2524L309.627 76.3476ZM304.812 74.4497L305.112 71.4497L304.117 71.3502L303.817 74.3502L304.812 74.4497ZM304.756 71.8795L360.556 55.3795L360.272 54.4205L304.472 70.9205L304.756 71.8795ZM360.082 55.2737L362.782 57.6737L363.446 56.9263L360.746 54.5263L360.082 55.2737ZM362.623 57.2066L355.723 93.5066L356.705 93.6934L363.605 57.3934L362.623 57.2066ZM356.589 93.9306C366.965 82.1585 377.529 72.8925 388.28 66.1231L387.748 65.2769C376.899 72.1075 366.264 81.4415 355.839 93.2694L356.589 93.9306ZM388.286 66.1196C399.032 59.1546 409.138 55.7 418.614 55.7V54.7C408.89 54.7 398.596 58.2454 387.742 65.2804L388.286 66.1196ZM418.614 55.7C424.9 55.7 430.072 57.6601 434.169 61.5621L434.859 60.8379C430.556 56.7399 425.128 54.7 418.614 54.7V55.7ZM434.179 61.5708C438.234 65.24 440.314 71.0769 440.314 79.2H441.314C441.314 70.9231 439.194 64.76 434.85 60.8292L434.179 61.5708ZM440.314 79.2C440.314 83.3683 439.917 87.7395 439.121 92.3143L440.107 92.4857C440.911 87.8605 441.314 83.4317 441.314 79.2H440.314ZM439.122 92.3106C438.324 96.6988 437.327 101.288 436.129 106.079L437.099 106.321C438.302 101.512 439.304 96.9012 440.106 92.4894L439.122 92.3106ZM436.129 106.079L420.229 169.979L421.199 170.221L437.099 106.321L436.129 106.079ZM420.229 169.979C419.427 173.185 418.825 175.896 418.422 178.111L419.406 178.289C419.803 176.104 420.401 173.415 421.199 170.221L420.229 169.979ZM418.424 178.102C418.019 180.126 417.814 181.96 417.814 183.6H418.814C418.814 182.04 419.009 180.274 419.404 178.298L418.424 178.102ZM417.814 183.6C417.814 185.754 418.248 187.463 419.2 188.64C420.169 189.836 421.606 190.4 423.414 190.4V189.4C421.822 189.4 420.709 188.914 419.978 188.01C419.23 187.087 418.814 185.646 418.814 183.6H417.814ZM423.414 190.4C426.345 190.4 429.614 189.224 433.207 186.947C436.803 184.668 440.76 181.262 445.076 176.745L444.353 176.055C440.069 180.538 436.175 183.882 432.671 186.103C429.164 188.326 426.083 189.4 423.414 189.4V190.4ZM444.361 176.754L447.361 179.754L448.068 179.046L445.068 176.046L444.361 176.754ZM447.3 179.12C442.336 186.466 435.779 193.126 427.619 199.096L428.209 199.904C436.45 193.874 443.092 187.134 448.128 179.68L447.3 179.12ZM427.619 199.096C419.503 205.035 410.506 208 400.614 208V209C410.722 209 419.925 205.965 428.209 199.904L427.619 199.096ZM400.614 208C394.084 208 389.114 206.516 385.634 203.616L384.994 204.384C388.714 207.484 393.944 209 400.614 209V208ZM385.646 203.626C382.171 200.537 380.414 196.283 380.414 190.8H379.414C379.414 196.517 381.257 201.063 384.982 204.374L385.646 203.626ZM380.414 190.8C380.414 186.64 380.909 182.377 381.902 178.011L380.927 177.789C379.919 182.223 379.414 186.56 379.414 190.8H380.414ZM381.903 178.006C382.902 173.411 384 168.717 385.199 163.921L384.229 163.679C383.028 168.483 381.927 173.189 380.925 177.794L381.903 178.006ZM385.199 163.921L396.899 117.121L395.929 116.879L384.229 163.679L385.199 163.921ZM396.899 117.121C398.501 110.716 399.802 105.008 400.804 99.9981L399.824 99.8019C398.826 104.792 397.528 110.484 395.929 116.879L396.899 117.121ZM400.804 99.9981C401.809 94.9724 402.314 90.339 402.314 86.1H401.314C401.314 90.261 400.819 94.8276 399.824 99.8019L400.804 99.9981ZM402.314 86.1C402.314 82.4516 401.508 79.7674 399.743 78.2237L399.085 78.9763C400.521 80.2326 401.314 82.5483 401.314 86.1H402.314ZM399.768 78.2464C398.053 76.5315 395.713 75.7 392.814 75.7V76.7C395.515 76.7 397.575 77.4685 399.061 78.9535L399.768 78.2464ZM392.814 75.7C387.876 75.7 382.08 77.8561 375.446 82.0782L375.983 82.9218C382.548 78.7438 388.152 76.7 392.814 76.7V75.7ZM375.44 82.082C368.986 86.3172 361.852 92.9547 354.036 101.973L354.792 102.627C362.576 93.6453 369.642 87.0828 375.988 82.918L375.44 82.082ZM353.926 102.192L345.526 139.992L346.502 140.208L354.902 102.408L353.926 102.192ZM345.525 139.998C343.324 150.601 341.223 161.204 339.223 171.807L340.205 171.993C342.205 161.396 344.304 150.799 346.504 140.202L345.525 139.998ZM339.223 171.807C337.223 182.408 335.223 193.108 333.222 203.909L334.206 204.091C336.206 193.292 338.206 182.592 340.205 171.993L339.223 171.807ZM333.685 203.501L297.385 205.601L297.443 206.599L333.743 204.499L333.685 203.501ZM456.748 203.7L456.425 204.081L456.435 204.09L456.445 204.098L456.748 203.7ZM451.948 176.1L452.441 176.186L452.442 176.182L451.948 176.1ZM454.648 160.8L454.16 160.693L454.158 160.701L454.157 160.709L454.648 160.8ZM475.348 66L475.837 66.1067L475.969 65.5H475.348V66ZM450.448 66L449.963 65.8787L449.808 66.5H450.448V66ZM451.348 62.4L451.293 61.903L450.948 61.9414L450.863 62.2787L451.348 62.4ZM462.148 61.2L462.095 60.7028L462.093 60.7031L462.148 61.2ZM476.848 57L477.08 57.4429L477.08 57.4429L476.848 57ZM488.848 47.7L488.493 47.3482L488.486 47.3556L488.848 47.7ZM517.648 18.6V18.1H517.44L517.293 18.2483L517.648 18.6ZM522.148 18.6L522.638 18.7001L522.761 18.1H522.148V18.6ZM513.748 59.7L513.259 59.5999L513.136 60.2H513.748V59.7ZM546.448 59.7L546.935 59.8158L547.081 59.2H546.448V59.7ZM544.948 66V66.5H545.343L545.435 66.1158L544.948 66ZM512.248 66V65.5H511.841L511.759 65.8985L512.248 66ZM491.548 165.9L492.038 166.003L492.038 166.001L491.548 165.9ZM489.748 175.8L490.243 175.876L490.243 175.871L489.748 175.8ZM490.948 187.2L491.302 186.846L491.302 186.846L490.948 187.2ZM503.848 185.7L504.132 186.112L504.14 186.106L504.148 186.1L503.848 185.7ZM515.848 175.2L516.169 174.816L515.825 174.53L515.502 174.839L515.848 175.2ZM519.448 178.2L519.863 178.48L520.116 178.105L519.769 177.816L519.448 178.2ZM472.348 208C466.238 208 461.15 206.425 457.051 203.302L456.445 204.098C460.747 207.375 466.059 209 472.348 209V208ZM457.072 203.319C453.208 200.035 451.248 195.288 451.248 189H450.248C450.248 195.512 452.289 200.565 456.425 204.081L457.072 203.319ZM451.248 189C451.248 185.033 451.645 180.762 452.441 176.186L451.456 176.014C450.652 180.638 450.248 184.967 450.248 189H451.248ZM452.442 176.182C453.241 171.385 454.141 166.288 455.14 160.891L454.157 160.709C453.156 166.112 452.256 171.215 451.455 176.018L452.442 176.182ZM455.137 160.907L475.837 66.1067L474.86 65.8933L454.16 160.693L455.137 160.907ZM475.348 65.5H450.448V66.5H475.348V65.5ZM450.934 66.1213L451.834 62.5213L450.863 62.2787L449.963 65.8787L450.934 66.1213ZM451.404 62.8969L462.204 61.6969L462.093 60.7031L451.293 61.903L451.404 62.8969ZM462.202 61.6972C467.853 61.0917 472.815 59.677 477.08 57.4429L476.616 56.5571C472.481 58.723 467.644 60.1083 462.095 60.7028L462.202 61.6972ZM477.08 57.4429C481.336 55.2137 485.379 52.0778 489.211 48.0444L488.486 47.3556C484.718 51.3222 480.761 54.3863 476.616 56.5571L477.08 57.4429ZM489.204 48.0517L518.004 18.9517L517.293 18.2483L488.493 47.3483L489.204 48.0517ZM517.648 19.1H522.148V18.1H517.648V19.1ZM521.659 18.4999L513.259 59.5999L514.238 59.8001L522.638 18.7001L521.659 18.4999ZM513.748 60.2H546.448V59.2H513.748V60.2ZM545.962 59.5842L544.462 65.8842L545.435 66.1158L546.935 59.8158L545.962 59.5842ZM544.948 65.5H512.248V66.5H544.948V65.5ZM511.759 65.8985L491.059 165.799L492.038 166.001L512.738 66.1014L511.759 65.8985ZM491.059 165.797C490.258 169.604 489.655 172.915 489.253 175.729L490.243 175.871C490.641 173.085 491.239 169.796 492.038 166.003L491.059 165.797ZM489.254 175.724C488.852 178.339 488.648 180.566 488.648 182.4H489.648C489.648 180.634 489.845 178.461 490.243 175.876L489.254 175.724ZM488.648 182.4C488.648 184.507 489.285 186.243 490.595 187.554L491.302 186.846C490.212 185.757 489.648 184.293 489.648 182.4H488.648ZM490.595 187.554C491.867 188.826 493.289 189.5 494.848 189.5V188.5C493.608 188.5 492.429 187.974 491.302 186.846L490.595 187.554ZM494.848 189.5C497.782 189.5 500.88 188.348 504.132 186.112L503.565 185.288C500.417 187.452 497.515 188.5 494.848 188.5V189.5ZM504.148 186.1C507.372 183.683 511.388 180.167 516.194 175.561L515.502 174.839C510.709 179.433 506.725 182.917 503.548 185.3L504.148 186.1ZM515.528 175.584L519.128 178.584L519.769 177.816L516.169 174.816L515.528 175.584ZM519.034 177.92C514.066 185.273 507.602 192.137 499.636 198.51L500.261 199.29C508.294 192.863 514.831 185.927 519.863 178.48L519.034 177.92ZM499.636 198.51C491.726 204.837 482.637 208 472.348 208V209C482.86 209 492.171 205.763 500.261 199.29L499.636 198.51ZM539.065 204.6L538.834 205.044L538.834 205.044L539.065 204.6ZM526.765 191.7L526.317 191.924L526.324 191.935L526.765 191.7ZM528.565 136.2L529.03 136.384L529.031 136.381L528.565 136.2ZM545.365 105.6L545.769 105.895L545.772 105.891L545.365 105.6ZM568.765 79.8L569.091 80.179L569.096 80.1747L568.765 79.8ZM595.465 61.8L595.249 61.3489L595.249 61.3489L595.465 61.8ZM632.665 57.6L632.452 58.0524L632.468 58.0597L632.484 58.066L632.665 57.6ZM642.865 63.6L642.55 63.988L642.774 64.1702L643.044 64.067L642.865 63.6ZM667.165 54.3L667.43 53.876L667.219 53.744L666.986 53.833L667.165 54.3ZM669.565 55.8L670.052 55.9108L670.131 55.5643L669.83 55.376L669.565 55.8ZM643.465 170.7L643.95 170.821L643.952 170.811L643.465 170.7ZM656.665 186.9L656.382 186.487L656.372 186.495L656.665 186.9ZM669.565 176.4L669.918 176.046L669.58 175.708L669.227 176.031L669.565 176.4ZM671.965 178.8L672.389 179.065L672.6 178.728L672.318 178.446L671.965 178.8ZM660.565 192.9L660.918 193.254L660.918 193.254L660.565 192.9ZM645.565 204L645.329 203.559L645.322 203.563L645.565 204ZM611.665 202.5L611.311 202.854L611.32 202.862L611.665 202.5ZM605.665 175.2L606.163 175.238L606.277 173.758L605.291 174.868L605.665 175.2ZM580.165 198.6L579.869 198.197L579.865 198.2L580.165 198.6ZM562.765 177.6L562.357 177.889L562.364 177.899L562.371 177.908L562.765 177.6ZM591.265 180L591.53 180.424L591.53 180.424L591.265 180ZM606.865 167.1L607.218 167.454L607.332 167.34L607.358 167.182L606.865 167.1ZM608.365 159.6L608.852 159.712L608.853 159.707L608.365 159.6ZM627.265 73.2L627.753 73.3068L627.805 73.0716L627.653 72.8847L627.265 73.2ZM617.965 66.6L618.123 66.1256L618.123 66.1256L617.965 66.6ZM581.365 80.1L580.997 79.7611L580.994 79.765L581.365 80.1ZM563.965 112.5L563.488 112.35L563.488 112.35L563.965 112.5ZM554.965 208C549.446 208 544.225 206.72 539.296 204.156L538.834 205.044C543.905 207.68 549.284 209 554.965 209V208ZM539.296 204.156C534.402 201.612 530.368 197.394 527.206 191.465L526.324 191.935C529.561 198.006 533.727 202.388 538.834 205.044L539.296 204.156ZM527.212 191.476C524.259 185.57 522.765 177.755 522.765 168H521.765C521.765 177.845 523.271 185.83 526.318 191.924L527.212 191.476ZM522.765 168C522.765 157.468 524.851 146.93 529.03 136.384L528.1 136.016C523.879 146.67 521.765 157.332 521.765 168H522.765ZM529.031 136.381C533.215 125.623 538.794 115.461 545.769 105.895L544.961 105.305C537.936 114.939 532.315 125.177 528.099 136.019L529.031 136.381ZM545.772 105.891C552.75 96.1212 560.523 87.5513 569.091 80.179L568.439 79.421C559.807 86.8487 551.98 95.4788 544.958 105.309L545.772 105.891ZM569.096 80.1747C577.665 72.6016 586.527 66.6287 595.681 62.2511L595.249 61.3489C586.002 65.7712 577.064 71.7984 568.434 79.4253L569.096 80.1747ZM595.681 62.2511C604.829 57.8756 613.455 55.7 621.565 55.7V54.7C613.274 54.7 604.5 56.9244 595.249 61.3489L595.681 62.2511ZM621.565 55.7C625.496 55.7 629.123 56.4857 632.452 58.0524L632.878 57.1476C629.407 55.5142 625.634 54.7 621.565 54.7V55.7ZM632.484 58.066C636.032 59.4459 639.387 61.4186 642.55 63.988L643.18 63.2119C639.943 60.5814 636.498 58.5541 632.846 57.134L632.484 58.066ZM643.044 64.067L667.344 54.767L666.986 53.833L642.686 63.133L643.044 64.067ZM666.9 54.724L669.3 56.224L669.83 55.376L667.43 53.876L666.9 54.724ZM669.077 55.6892L642.977 170.589L643.952 170.811L670.052 55.9108L669.077 55.6892ZM642.98 170.579C641.575 176.198 640.865 180.842 640.865 184.5H641.865C641.865 180.958 642.555 176.402 643.95 170.821L642.98 170.579ZM640.865 184.5C640.865 186.665 641.354 188.383 642.419 189.56C643.493 190.748 645.074 191.3 647.065 191.3V190.3C645.256 190.3 643.986 189.802 643.161 188.89C642.326 187.967 641.865 186.535 641.865 184.5H640.865ZM647.065 191.3C650.015 191.3 653.319 189.934 656.958 187.305L656.372 186.495C652.811 189.066 649.714 190.3 647.065 190.3V191.3ZM656.947 187.313C660.773 184.695 665.092 181.179 669.903 176.769L669.227 176.031C664.438 180.421 660.157 183.905 656.383 186.487L656.947 187.313ZM669.211 176.754L671.611 179.154L672.318 178.446L669.918 176.046L669.211 176.754ZM671.541 178.535C668.564 183.299 664.788 187.969 660.211 192.546L660.918 193.254C665.541 188.631 669.366 183.901 672.389 179.065L671.541 178.535ZM660.211 192.546C655.847 196.911 650.886 200.582 645.329 203.559L645.801 204.441C651.443 201.418 656.483 197.689 660.918 193.254L660.211 192.546ZM645.322 203.563C639.997 206.521 634.28 208 628.165 208V209C634.449 209 640.333 207.479 645.808 204.437L645.322 203.563ZM628.165 208C621.47 208 616.101 206.034 612.01 202.138L611.32 202.862C615.629 206.966 621.26 209 628.165 209V208ZM612.018 202.146C607.947 198.075 605.865 191.827 605.865 183.3H604.865C604.865 191.973 606.982 198.525 611.311 202.854L612.018 202.146ZM605.865 183.3C605.865 180.512 605.964 177.825 606.163 175.238L605.166 175.162C604.965 177.775 604.865 180.488 604.865 183.3H605.865ZM605.291 174.868C597.313 183.844 588.839 191.619 579.869 198.197L580.461 199.003C589.491 192.381 598.017 184.556 606.039 175.532L605.291 174.868ZM579.865 198.2C571.12 204.759 562.823 208 554.965 208V209C563.107 209 571.61 205.641 580.465 199L579.865 198.2ZM557.165 154.5C557.165 165.131 558.866 172.96 562.357 177.889L563.173 177.311C559.864 172.64 558.165 165.069 558.165 154.5H557.165ZM562.371 177.908C566.065 182.628 570.91 185 576.865 185V184C571.22 184 566.665 181.772 563.159 177.292L562.371 177.908ZM576.865 185C581.774 185 586.665 183.465 591.53 180.424L591 179.576C586.265 182.535 581.555 184 576.865 184V185ZM591.53 180.424C596.372 177.398 601.601 173.071 607.218 167.454L606.511 166.746C600.928 172.329 595.758 176.602 591 179.576L591.53 180.424ZM607.358 167.182C607.756 164.793 608.254 162.303 608.852 159.712L607.878 159.488C607.276 162.097 606.773 164.607 606.372 167.018L607.358 167.182ZM608.853 159.707L627.753 73.3068L626.776 73.0931L607.876 159.493L608.853 159.707ZM627.653 72.8847C624.998 69.6175 621.821 67.3583 618.123 66.1256L617.807 67.0743C621.309 68.2417 624.331 70.3824 626.877 73.5153L627.653 72.8847ZM618.123 66.1256C614.489 64.9143 611.234 64.3 608.365 64.3V65.3C611.096 65.3 614.241 65.8857 617.807 67.0743L618.123 66.1256ZM608.365 64.3C599.559 64.3 590.435 69.5196 580.997 79.7612L581.733 80.4388C591.094 70.2804 599.97 65.3 608.365 65.3V64.3ZM580.994 79.765C573.534 88.0309 567.704 98.8998 563.488 112.35L564.442 112.65C568.626 99.3002 574.396 88.5691 581.736 80.435L580.994 79.765ZM563.488 112.35C559.272 125.801 557.165 139.851 557.165 154.5H558.165C558.165 139.949 560.258 125.999 564.442 112.65L563.488 112.35ZM684.564 193.5L684.2 193.842L684.2 193.842L684.564 193.5ZM677.064 115.2L677.531 115.38L677.532 115.377L677.064 115.2ZM695.364 84.3L694.99 83.9678L694.986 83.9725L695.364 84.3ZM722.664 63L722.44 62.5528L722.437 62.5545L722.664 63ZM775.464 58.5L775.292 58.9695L775.297 58.9712L775.464 58.5ZM790.164 67.8L789.792 68.1346L789.802 68.1444L790.164 67.8ZM795.564 81.9L796.064 81.9185L796.064 81.9185L795.564 81.9ZM790.464 94.8L790.806 95.1648L790.812 95.1592L790.818 95.1535L790.464 94.8ZM764.364 94.2L764.718 93.8464L764.718 93.8464L764.364 94.2ZM756.264 82.5L755.793 82.6664L755.8 82.687L755.809 82.7069L756.264 82.5ZM754.464 77.4L754.936 77.2336L754.93 77.219L754.924 77.2047L754.464 77.4ZM746.964 65.7L746.677 66.1096L746.7 66.1256L746.725 66.1389L746.964 65.7ZM736.464 69.9L736.142 69.5171L736.14 69.5194L736.464 69.9ZM721.164 88.5L720.738 88.2379L720.733 88.246L721.164 88.5ZM710.064 114.3L709.585 114.157L709.585 114.157L710.064 114.3ZM715.464 176.4L715.09 176.732L715.095 176.738L715.1 176.743L715.464 176.4ZM782.664 160.8L782.955 160.393L782.552 160.106L782.261 160.505L782.664 160.8ZM786.864 163.8L787.304 164.037L787.513 163.649L787.155 163.393L786.864 163.8ZM770.664 185.7L770.305 185.352L770.305 185.352L770.664 185.7ZM747.864 202.2L747.645 201.751L747.64 201.753L747.864 202.2ZM720.864 208C706.19 208 694.226 203.049 684.928 193.158L684.2 193.842C693.702 203.951 705.938 209 720.864 209V208ZM684.928 193.158C675.64 183.276 670.964 169.414 670.964 151.5H669.964C669.964 169.586 674.688 183.724 684.2 193.842L684.928 193.158ZM670.964 151.5C670.964 138.759 673.154 126.72 677.531 115.38L676.598 115.02C672.174 126.48 669.964 138.641 669.964 151.5H670.964ZM677.532 115.377C681.912 103.83 687.982 93.5812 695.742 84.6275L694.986 83.9725C687.146 93.0188 681.017 103.37 676.597 115.023L677.532 115.377ZM695.738 84.6322C703.699 75.6763 712.749 68.6157 722.891 63.4454L722.437 62.5545C712.179 67.7843 703.03 74.9237 694.99 83.9678L695.738 84.6322ZM722.888 63.4472C733.217 58.2825 744.24 55.7 755.964 55.7V54.7C744.088 54.7 732.911 57.3175 722.44 62.5528L722.888 63.4472ZM755.964 55.7C762.911 55.7 769.352 56.7915 775.292 58.9694L775.636 58.0306C769.576 55.8085 763.017 54.7 755.964 54.7V55.7ZM775.297 58.9712C781.436 61.1495 786.259 64.2087 789.792 68.1345L790.536 67.4655C786.869 63.3913 781.892 60.2505 775.631 58.0288L775.297 58.9712ZM789.802 68.1444C793.511 72.0491 795.259 76.6191 795.064 81.8815L796.064 81.9185C796.269 76.3809 794.417 71.5509 790.527 67.4556L789.802 68.1444ZM795.064 81.8815C794.868 87.1813 793.204 91.3525 790.111 94.4464L790.818 95.1535C794.124 91.8475 795.86 87.4187 796.064 81.9185L795.064 81.8815ZM790.122 94.4352C787.032 97.3326 782.962 98.8 777.864 98.8V99.8C783.166 99.8 787.497 98.2674 790.806 95.1648L790.122 94.4352ZM777.864 98.8C772.373 98.8 768.008 97.1372 764.718 93.8464L764.011 94.5535C767.52 98.0628 772.155 99.8 777.864 99.8V98.8ZM764.718 93.8464C761.36 90.4891 758.695 86.6388 756.719 82.2931L755.809 82.7069C757.834 87.1612 760.568 91.1109 764.011 94.5535L764.718 93.8464ZM756.736 82.3336L754.936 77.2336L753.993 77.5664L755.793 82.6664L756.736 82.3336ZM754.924 77.2047C753.519 73.8912 752.181 71.238 750.91 69.2552C749.647 67.2851 748.416 65.9226 747.203 65.261L746.725 66.1389C747.712 66.6774 748.831 67.8649 750.068 69.7948C751.297 71.712 752.61 74.3088 754.004 77.5953L754.924 77.2047ZM747.251 65.2904C746.049 64.4491 744.471 64.5089 742.653 65.2358C740.831 65.9648 738.658 67.4041 736.142 69.5171L736.786 70.2828C739.27 68.1959 741.347 66.8352 743.025 66.1642C744.708 65.4911 745.879 65.5509 746.677 66.1096L747.251 65.2904ZM736.14 69.5194C730.69 74.1616 725.558 80.4056 720.738 88.2379L721.59 88.762C726.37 80.9944 731.438 74.8384 736.788 70.2806L736.14 69.5194ZM720.733 88.246C716.111 96.0837 712.396 104.722 709.585 114.157L710.543 114.443C713.333 105.078 717.017 96.5162 721.595 88.754L720.733 88.246ZM709.585 114.157C706.771 123.604 705.364 133.252 705.364 143.1H706.364C706.364 133.348 707.757 123.796 710.543 114.443L709.585 114.157ZM705.364 143.1C705.364 158.157 708.574 169.401 715.09 176.732L715.838 176.068C709.554 168.999 706.364 158.043 706.364 143.1H705.364ZM715.1 176.743C721.809 183.858 730.748 187.4 741.864 187.4V186.4C730.98 186.4 722.319 182.942 715.828 176.057L715.1 176.743ZM741.864 187.4C749.177 187.4 756.371 185.062 763.439 180.418L762.889 179.582C755.957 184.138 748.951 186.4 741.864 186.4V187.4ZM763.439 180.418C770.498 175.779 777.04 169.334 783.068 161.095L782.261 160.505C776.289 168.666 769.83 175.021 762.889 179.582L763.439 180.418ZM782.373 161.207L786.573 164.207L787.155 163.393L782.955 160.393L782.373 161.207ZM786.424 163.563C782.247 171.32 776.875 178.583 770.305 185.352L771.023 186.048C777.653 179.217 783.081 171.88 787.304 164.037L786.424 163.563ZM770.305 185.352C763.746 192.11 756.193 197.576 747.645 201.751L748.083 202.649C756.735 198.424 764.382 192.89 771.023 186.048L770.305 185.352ZM747.64 201.753C739.311 205.917 730.388 208 720.864 208V209C730.54 209 739.617 206.883 748.088 202.647L747.64 201.753ZM798.995 203.7L798.671 204.081L798.681 204.09L798.692 204.098L798.995 203.7ZM794.195 176.1L794.687 176.186L794.688 176.182L794.195 176.1ZM796.895 160.8L796.406 160.693L796.404 160.701L796.403 160.709L796.895 160.8ZM817.595 66L818.083 66.1067L818.215 65.5H817.595V66ZM792.695 66L792.209 65.8787L792.054 66.5H792.695V66ZM793.595 62.4L793.539 61.903L793.194 61.9414L793.109 62.2787L793.595 62.4ZM804.395 61.2L804.341 60.7028L804.339 60.7031L804.395 61.2ZM819.095 57L819.327 57.4429L819.327 57.4429L819.095 57ZM831.095 47.7L830.739 47.3482L830.732 47.3556L831.095 47.7ZM859.895 18.6V18.1H859.686L859.539 18.2483L859.895 18.6ZM864.395 18.6L864.884 18.7001L865.007 18.1H864.395V18.6ZM855.995 59.7L855.505 59.5999L855.382 60.2H855.995V59.7ZM888.695 59.7L889.181 59.8158L889.328 59.2H888.695V59.7ZM887.195 66V66.5H887.589L887.681 66.1158L887.195 66ZM854.495 66V65.5H854.088L854.005 65.8985L854.495 66ZM833.795 165.9L834.284 166.003L834.284 166.001L833.795 165.9ZM831.995 175.8L832.489 175.876L832.49 175.871L831.995 175.8ZM833.195 187.2L833.548 186.846L833.548 186.846L833.195 187.2ZM846.095 185.7L846.378 186.112L846.386 186.106L846.395 186.1L846.095 185.7ZM858.095 175.2L858.415 174.816L858.071 174.53L857.749 174.839L858.095 175.2ZM861.695 178.2L862.109 178.48L862.362 178.105L862.015 177.816L861.695 178.2ZM814.595 208C808.484 208 803.396 206.425 799.298 203.302L798.692 204.098C802.993 207.375 808.305 209 814.595 209V208ZM799.318 203.319C795.454 200.035 793.495 195.288 793.495 189H792.495C792.495 195.512 794.535 200.565 798.671 204.081L799.318 203.319ZM793.495 189C793.495 185.033 793.891 180.762 794.687 176.186L793.702 176.014C792.898 180.638 792.495 184.967 792.495 189H793.495ZM794.688 176.182C795.487 171.385 796.387 166.288 797.386 160.891L796.403 160.709C795.402 166.112 794.502 171.215 793.701 176.018L794.688 176.182ZM797.383 160.907L818.083 66.1067L817.106 65.8933L796.406 160.693L797.383 160.907ZM817.595 65.5H792.695V66.5H817.595V65.5ZM793.18 66.1213L794.08 62.5213L793.109 62.2787L792.209 65.8787L793.18 66.1213ZM793.65 62.8969L804.45 61.6969L804.339 60.7031L793.539 61.903L793.65 62.8969ZM804.448 61.6972C810.099 61.0917 815.062 59.677 819.327 57.4429L818.863 56.5571C814.728 58.723 809.89 60.1083 804.341 60.7028L804.448 61.6972ZM819.327 57.4429C823.582 55.2137 827.625 52.0778 831.457 48.0444L830.732 47.3556C826.964 51.3222 823.007 54.3863 818.863 56.5571L819.327 57.4429ZM831.45 48.0517L860.25 18.9517L859.539 18.2483L830.739 47.3483L831.45 48.0517ZM859.895 19.1H864.395V18.1H859.895V19.1ZM863.905 18.4999L855.505 59.5999L856.484 59.8001L864.884 18.7001L863.905 18.4999ZM855.995 60.2H888.695V59.2H855.995V60.2ZM888.208 59.5842L886.708 65.8842L887.681 66.1158L889.181 59.8158L888.208 59.5842ZM887.195 65.5H854.495V66.5H887.195V65.5ZM854.005 65.8985L833.305 165.799L834.284 166.001L854.984 66.1014L854.005 65.8985ZM833.305 165.797C832.504 169.604 831.902 172.915 831.5 175.729L832.49 175.871C832.888 173.085 833.485 169.796 834.284 166.003L833.305 165.797ZM831.5 175.724C831.098 178.339 830.895 180.566 830.895 182.4H831.895C831.895 180.634 832.091 178.461 832.489 175.876L831.5 175.724ZM830.895 182.4C830.895 184.507 831.531 186.243 832.841 187.554L833.548 186.846C832.458 185.757 831.895 184.293 831.895 182.4H830.895ZM832.841 187.554C834.114 188.826 835.535 189.5 837.095 189.5V188.5C835.854 188.5 834.676 187.974 833.548 186.846L832.841 187.554ZM837.095 189.5C840.028 189.5 843.126 188.348 846.378 186.112L845.811 185.288C842.663 187.452 839.761 188.5 837.095 188.5V189.5ZM846.395 186.1C849.618 183.683 853.634 180.167 858.44 175.561L857.749 174.839C852.955 179.433 848.971 182.917 845.795 185.3L846.395 186.1ZM857.774 175.584L861.374 178.584L862.015 177.816L858.415 174.816L857.774 175.584ZM861.28 177.92C856.312 185.273 849.849 192.137 841.882 198.51L842.507 199.29C850.541 192.863 857.077 185.927 862.109 178.48L861.28 177.92ZM841.882 198.51C833.972 204.837 824.883 208 814.595 208V209C825.106 209 834.417 205.763 842.507 199.29L841.882 198.51Z" fill="black"/>
</svg>
