<svg width="1296" height="284" viewBox="0 0 1296 284" fill="none" xmlns="http://www.w3.org/2000/svg">
<path d="M0.8 211L0.30971 210.902L0.190098 211.5H0.8V211ZM1.4 208L1.27379 207.516L0.971065 207.595L0.90971 207.902L1.4 208ZM8.3 206.2L8.42624 206.684L8.43598 206.681L8.3 206.2ZM24.5 188.8L24.0085 188.708L24.0077 188.712L24.5 188.8ZM52.7 37.9L53.1915 37.9918L53.2126 37.8791L53.1824 37.7684L52.7 37.9ZM51.8 34.6L51.3002 34.6139L51.3019 34.6738L51.3176 34.7316L51.8 34.6ZM42.2 17.5L41.9093 17.907L41.9196 17.9139L42.2 17.5ZM40.1 16L39.6097 15.9019L39.5463 16.2189L39.8094 16.4069L40.1 16ZM40.7 13V12.5H40.2901L40.2097 12.9019L40.7 13ZM91.7 13L92.184 12.8746L92.087 12.5H91.7V13ZM130.1 161.2L129.616 161.325L129.916 162.483L130.529 161.456L130.1 161.2ZM218.6 13V12.5H218.316L218.171 12.7436L218.6 13ZM271.4 13L271.89 13.0981L272.01 12.5H271.4V13ZM270.8 16L271.005 16.4559L271.24 16.3504L271.29 16.098L270.8 16ZM264.8 18.7L264.992 19.1617L265.005 19.156L264.8 18.7ZM251.9 35.5L252.392 35.588L252.393 35.5841L251.9 35.5ZM237.2 117.7L237.692 117.79L237.692 117.788L237.2 117.7ZM224.3 190.6L224.793 190.682L224.793 190.681L224.3 190.6ZM234.8 207.1L234.976 206.632L234.962 206.627L234.948 206.622L234.8 207.1ZM237.2 208L237.69 208.098L237.774 207.681L237.376 207.532L237.2 208ZM236.6 211V211.5H237.01L237.09 211.098L236.6 211ZM164.9 211L164.41 210.902L164.29 211.5H164.9V211ZM165.5 208L165.356 207.521L165.069 207.607L165.01 207.902L165.5 208ZM168.5 207.1L168.644 207.579L168.648 207.578L168.5 207.1ZM183.2 190.3L182.708 190.21L182.707 190.22L183.2 190.3ZM209.6 46.6L210.092 46.6903L209.171 46.3438L209.6 46.6ZM111.5 211V211.5H111.784L111.929 211.256L111.5 211ZM100.4 211L99.9157 211.124L100.012 211.5H100.4V211ZM58.4 47.2L58.8843 47.0758L57.9082 47.11L58.4 47.2ZM32.6 188.2L33.0907 188.296L33.0918 188.29L32.6 188.2ZM43.4 206.5L43.2419 206.974L43.2539 206.978L43.2662 206.982L43.4 206.5ZM48.8 208L49.2903 208.098L49.3814 207.643L48.9338 207.518L48.8 208ZM48.2 211V211.5H48.6099L48.6903 211.098L48.2 211ZM1.29029 211.098L1.89029 208.098L0.90971 207.902L0.30971 210.902L1.29029 211.098ZM1.52621 208.484L8.42621 206.684L8.17379 205.716L1.27379 207.516L1.52621 208.484ZM8.43598 206.681C13.1058 205.361 16.8418 203.22 19.6159 200.241C22.3912 197.26 24.1781 193.467 24.9923 188.888L24.0077 188.712C23.2219 193.133 21.5088 196.74 18.8841 199.559C16.2582 202.38 12.6942 204.439 8.16402 205.719L8.43598 206.681ZM24.9915 188.892L53.1915 37.9918L52.2085 37.8081L24.0085 188.708L24.9915 188.892ZM53.1824 37.7684L52.2824 34.4684L51.3176 34.7316L52.2176 38.0316L53.1824 37.7684ZM52.2998 34.5861C52.0951 27.2178 48.8074 21.3721 42.4804 17.086L41.9196 17.9139C47.9926 22.0279 51.1049 27.5822 51.3002 34.6139L52.2998 34.5861ZM42.4906 17.0931L40.3906 15.5931L39.8094 16.4069L41.9094 17.9069L42.4906 17.0931ZM40.5903 16.098L41.1903 13.0981L40.2097 12.9019L39.6097 15.9019L40.5903 16.098ZM40.7 13.5H91.7V12.5H40.7V13.5ZM91.216 13.1254L129.616 161.325L130.584 161.075L92.184 12.8746L91.216 13.1254ZM130.529 161.456L219.029 13.2563L218.171 12.7436L129.671 160.944L130.529 161.456ZM218.6 13.5H271.4V12.5H218.6V13.5ZM270.91 12.9019L270.31 15.9019L271.29 16.098L271.89 13.0981L270.91 12.9019ZM270.595 15.544L264.595 18.244L265.005 19.156L271.005 16.4559L270.595 15.544ZM264.608 18.2385C257.237 21.3095 252.834 27.0603 251.407 35.4158L252.393 35.5841C253.766 27.5396 257.963 22.0905 264.992 19.1615L264.608 18.2385ZM251.408 35.412L236.708 117.612L237.692 117.788L252.392 35.588L251.408 35.412ZM236.708 117.61C234.508 129.61 232.308 141.711 230.108 153.911L231.092 154.089C233.292 141.889 235.492 129.79 237.692 117.79L236.708 117.61ZM230.108 153.911C227.907 166.114 225.807 178.316 223.807 190.519L224.793 190.681C226.793 178.484 228.893 166.286 231.092 154.089L230.108 153.911ZM223.807 190.518C223.093 194.801 223.619 198.411 225.453 201.293C227.286 204.174 230.379 206.255 234.652 207.578L234.948 206.622C230.821 205.345 227.964 203.376 226.297 200.757C224.631 198.139 224.107 194.799 224.793 190.682L223.807 190.518ZM234.624 207.568L237.024 208.468L237.376 207.532L234.976 206.632L234.624 207.568ZM236.71 207.902L236.11 210.902L237.09 211.098L237.69 208.098L236.71 207.902ZM236.6 210.5H164.9V211.5H236.6V210.5ZM165.39 211.098L165.99 208.098L165.01 207.902L164.41 210.902L165.39 211.098ZM165.644 208.479L168.644 207.579L168.356 206.621L165.356 207.521L165.644 208.479ZM168.648 207.578C172.92 206.255 176.33 204.161 178.851 201.279C181.373 198.398 182.981 194.757 183.694 190.38L182.707 190.22C182.019 194.443 180.477 197.902 178.099 200.621C175.72 203.339 172.48 205.345 168.352 206.622L168.648 207.578ZM183.692 190.39L210.092 46.6903L209.108 46.5096L182.708 190.21L183.692 190.39ZM209.171 46.3438L111.071 210.744L111.929 211.256L210.029 46.8562L209.171 46.3438ZM111.5 210.5H100.4V211.5H111.5V210.5ZM100.884 210.876L58.8843 47.0758L57.9157 47.3242L99.9157 211.124L100.884 210.876ZM57.9082 47.11L32.1082 188.11L33.0918 188.29L58.8918 47.29L57.9082 47.11ZM32.1093 188.104C31.1935 192.785 31.6394 196.744 33.5194 199.929C35.3989 203.114 38.6667 205.449 43.2419 206.974L43.5581 206.026C39.1333 204.551 36.1011 202.336 34.3806 199.421C32.6606 196.506 32.2065 192.815 33.0907 188.296L32.1093 188.104ZM43.2662 206.982L48.6662 208.482L48.9338 207.518L43.5338 206.018L43.2662 206.982ZM48.3097 207.902L47.7097 210.902L48.6903 211.098L49.2903 208.098L48.3097 207.902ZM48.2 210.5H0.8V211.5H48.2V210.5ZM217.343 274.3L217.661 273.914L217.653 273.908L217.343 274.3ZM215.843 246.1L215.5 245.736L215.499 245.737L215.843 246.1ZM247.043 248.2L247.378 247.829L247.375 247.826L247.043 248.2ZM259.343 255.1L259.245 255.59L259.249 255.591L259.343 255.1ZM272.243 251.5L271.952 251.093L271.949 251.096L272.243 251.5ZM280.043 244.9L279.72 244.518L279.704 244.532L279.689 244.546L280.043 244.9ZM287.843 237.4L287.489 237.046L287.483 237.053L287.477 237.06L287.843 237.4ZM289.643 235.6L289.997 235.954L290.173 235.777L290.138 235.531L289.643 235.6ZM280.643 173.8L281.137 173.725L280.643 173.8ZM271.343 112.3L270.847 112.365L270.849 112.375L271.343 112.3ZM268.343 95.5L268.825 95.3662L268.825 95.3662L268.343 95.5ZM265.043 88.6L264.659 88.9201L264.688 88.955L264.723 88.9841L265.043 88.6ZM254.243 89.5L253.958 89.0889L253.951 89.0943L253.943 89.1L254.243 89.5ZM245.843 98.8L245.489 99.1535L245.903 99.5673L246.247 99.0941L245.843 98.8ZM241.943 94.9L241.522 94.6298L241.305 94.9687L241.589 95.2535L241.943 94.9ZM300.743 69.7L300.322 69.9696L300.33 69.9812L300.743 69.7ZM307.343 93.7L306.845 93.7453L306.846 93.7534L307.343 93.7ZM313.043 147.1L312.546 147.153L312.546 147.153L313.043 147.1ZM317.843 200.5L317.344 200.537L318.304 200.694L317.843 200.5ZM335.543 151L336.023 151.14L336.023 151.139L335.543 151ZM349.643 97.3L349.157 97.182L349.157 97.1835L349.643 97.3ZM360.443 68.8L360.052 68.4875L360.045 68.4974L360.443 68.8ZM390.143 90.7L389.688 90.493L389.683 90.503L390.143 90.7ZM382.343 106.6L381.901 106.365L381.899 106.371L382.343 106.6ZM371.843 126.1L371.407 125.856L371.407 125.856L371.843 126.1ZM358.343 148.9L358.765 149.168L358.768 149.163L358.343 148.9ZM340.343 177.4L339.919 177.134L339.918 177.137L340.343 177.4ZM318.443 210.1L318.845 210.398L318.85 210.39L318.443 210.1ZM303.743 229.6L303.346 229.296L303.34 229.304L303.743 229.6ZM284.843 251.5L284.485 251.151L284.477 251.159L284.843 251.5ZM260.243 272.2L259.98 271.775L259.975 271.778L260.243 272.2ZM235.043 279.5C227.934 279.5 222.154 277.626 217.661 273.915L217.025 274.685C221.732 278.574 227.752 280.5 235.043 280.5V279.5ZM217.653 273.908C212.975 270.204 210.643 265.349 210.643 259.3H209.643C209.643 265.651 212.111 270.796 217.033 274.692L217.653 273.908ZM210.643 259.3C210.643 254.238 212.486 249.969 216.187 246.463L215.499 245.737C211.6 249.431 209.643 253.962 209.643 259.3H210.643ZM216.186 246.464C219.685 243.159 224.058 241.5 229.343 241.5V240.5C223.828 240.5 219.201 242.241 215.5 245.736L216.186 246.464ZM229.343 241.5C235.605 241.5 241.39 243.844 246.711 248.574L247.375 247.826C241.896 242.956 235.881 240.5 229.343 240.5V241.5ZM246.708 248.571C250.95 252.409 255.129 254.767 259.245 255.59L259.441 254.61C255.557 253.833 251.536 251.591 247.378 247.829L246.708 248.571ZM259.249 255.591C263.62 256.424 268.058 255.162 272.537 251.904L271.949 251.096C267.628 254.238 263.466 255.376 259.437 254.609L259.249 255.591ZM272.534 251.907C275.356 249.891 277.977 247.673 280.397 245.254L279.689 244.546C277.309 246.927 274.73 249.109 271.952 251.093L272.534 251.907ZM280.366 245.282C282.983 243.067 285.597 240.553 288.209 237.74L287.477 237.06C284.889 239.847 282.303 242.333 279.72 244.518L280.366 245.282ZM288.197 237.754C288.797 237.154 289.397 236.554 289.997 235.954L289.289 235.246C288.689 235.846 288.089 236.446 287.489 237.046L288.197 237.754ZM290.138 235.531C287.138 214.129 284.138 193.527 281.137 173.725L280.149 173.875C283.148 193.673 286.148 214.271 289.148 235.669L290.138 235.531ZM281.137 173.725C278.137 153.925 275.037 133.425 271.837 112.225L270.849 112.375C274.049 133.575 277.149 154.075 280.149 173.875L281.137 173.725ZM271.839 112.235C270.838 104.63 269.835 99.0016 268.825 95.3662L267.861 95.6338C268.851 99.1984 269.848 104.77 270.847 112.365L271.839 112.235ZM268.825 95.3662C268.32 93.5497 267.786 92.0447 267.219 90.8593C266.655 89.6805 266.042 88.7821 265.363 88.2159L264.723 88.9841C265.243 89.4179 265.781 90.1695 266.317 91.2907C266.85 92.4053 267.366 93.8503 267.861 95.6338L268.825 95.3662ZM265.427 88.2799C264.329 86.9627 262.887 86.3 261.143 86.3V87.3C262.599 87.3 263.756 87.8372 264.659 88.9201L265.427 88.2799ZM261.143 86.3C258.998 86.3 256.597 87.262 253.958 89.0889L254.528 89.9111C257.089 88.1379 259.288 87.3 261.143 87.3V86.3ZM253.943 89.1C251.483 90.9449 248.648 94.0927 245.439 98.5059L246.247 99.0941C249.438 94.7073 252.203 91.6551 254.543 89.9L253.943 89.1ZM246.197 98.4464L242.297 94.5464L241.589 95.2535L245.489 99.1535L246.197 98.4464ZM242.364 95.1702C256.344 73.4009 270.414 62.7 284.543 62.7V61.7C269.872 61.7 255.542 72.7991 241.522 94.6298L242.364 95.1702ZM284.543 62.7C292.027 62.7 297.24 65.1534 300.322 69.9695L301.164 69.4305C297.846 64.2465 292.259 61.7 284.543 61.7V62.7ZM300.33 69.9812C303.657 74.8743 305.847 82.7705 306.845 93.7453L307.841 93.6547C306.839 82.6295 304.629 74.5257 301.156 69.4188L300.33 69.9812ZM306.846 93.7534C308.846 112.353 310.746 130.153 312.546 147.153L313.54 147.047C311.74 130.047 309.84 112.247 307.84 93.6465L306.846 93.7534ZM312.546 147.153C314.345 163.947 315.945 181.742 317.344 200.537L318.342 200.463C316.941 181.658 315.341 163.853 313.54 147.047L312.546 147.153ZM318.304 200.694C325.311 184.078 331.217 167.56 336.023 151.14L335.063 150.86C330.269 167.24 324.375 183.722 317.382 200.306L318.304 200.694ZM336.023 151.139C340.826 134.531 345.528 116.623 350.129 97.4165L349.157 97.1835C344.558 116.377 339.86 134.269 335.063 150.861L336.023 151.139ZM350.129 97.418C353.528 83.4202 357.11 74.0121 360.841 69.1025L360.045 68.4974C356.176 73.5879 352.558 83.1798 349.157 97.182L350.129 97.418ZM360.833 69.1123C364.735 64.2351 369.889 61.8 376.343 61.8V60.8C369.597 60.8 364.151 63.3649 360.053 68.4876L360.833 69.1123ZM376.343 61.8C380.627 61.8 384.415 63.1596 387.725 65.886L388.361 65.114C384.871 62.2404 380.859 60.8 376.343 60.8V61.8ZM387.725 65.886C391.004 68.5862 392.643 72.1418 392.643 76.6H393.643C393.643 71.8582 391.882 68.0138 388.361 65.114L387.725 65.886ZM392.643 76.6C392.643 81.5311 391.657 86.1603 389.688 90.4931L390.598 90.9069C392.629 86.4397 393.643 81.6688 393.643 76.6H392.643ZM389.683 90.503C387.891 94.6851 385.298 99.9715 381.901 106.365L382.785 106.835C386.188 100.428 388.795 95.1149 390.603 90.897L389.683 90.503ZM381.899 106.371C378.701 112.565 375.204 119.06 371.407 125.856L372.279 126.344C376.082 119.54 379.584 113.035 382.787 106.829L381.899 106.371ZM371.407 125.856C367.611 132.648 363.115 140.242 357.918 148.637L358.768 149.163C363.971 140.758 368.475 133.152 372.279 126.344L371.407 125.856ZM357.921 148.632C352.32 157.433 346.32 166.933 339.919 177.134L340.767 177.666C347.166 167.467 353.165 157.967 358.765 149.168L357.921 148.632ZM339.918 177.137C333.725 187.126 326.431 198.017 318.036 209.81L318.85 210.39C327.255 198.583 334.561 187.674 340.768 177.663L339.918 177.137ZM318.041 209.802C313.443 216 308.544 222.498 303.346 229.296L304.14 229.904C309.341 223.102 314.243 216.6 318.845 210.398L318.041 209.802ZM303.34 229.304C298.357 236.081 292.073 243.363 284.485 251.151L285.201 251.849C292.813 244.037 299.129 236.719 304.146 229.896L303.34 229.304ZM284.477 251.159C276.502 259.733 268.336 266.602 259.98 271.775L260.506 272.625C268.95 267.398 277.184 260.467 285.209 251.841L284.477 251.159ZM259.975 271.778C251.845 276.934 243.536 279.5 235.043 279.5V280.5C243.75 280.5 252.241 277.866 260.511 272.622L259.975 271.778ZM412.599 211L412.109 210.902L411.989 211.5H412.599V211ZM413.199 208L413.028 207.53L412.764 207.626L412.709 207.902L413.199 208ZM416.499 206.8L416.335 206.328L416.328 206.33L416.499 206.8ZM431.799 189.4L431.308 189.308L431.308 189.309L431.799 189.4ZM447.399 106L446.909 105.902L446.908 105.908L447.399 106ZM453.699 72.4L454.192 72.4864L454.192 72.4849L453.699 72.4ZM460.299 34L460.792 34.0845L460.792 34.0841L460.299 34ZM450.699 17.2L450.514 17.6643L450.52 17.6667L450.699 17.2ZM447.699 16L447.209 15.9019L447.127 16.3098L447.514 16.4642L447.699 16ZM448.299 13V12.5H447.889L447.809 12.9019L448.299 13ZM569.799 28L569.473 28.3788L569.48 28.3846L569.799 28ZM577.299 99.7L576.883 99.4226L576.882 99.4246L577.299 99.7ZM546.999 124L547.204 124.456L547.207 124.455L546.999 124ZM483.099 133V132.5H482.689L482.609 132.902L483.099 133ZM477.999 159.7L477.507 159.61L477.506 159.618L477.999 159.7ZM472.899 188.8L472.407 188.71L472.406 188.717L472.405 188.725L472.899 188.8ZM483.699 207.1L483.535 207.572L483.556 207.58L483.578 207.585L483.699 207.1ZM487.299 208L487.79 208.098L487.883 207.631L487.42 207.515L487.299 208ZM486.699 211V211.5H487.109L487.19 211.098L486.699 211ZM484.299 127L483.808 126.907L483.696 127.5H484.299V127ZM532.299 110.8L532.676 111.128L532.679 111.125L532.299 110.8ZM504.399 19V18.5H503.98L503.907 18.9125L504.399 19ZM494.499 73L494.991 73.0928L494.991 73.0928L494.499 73ZM413.09 211.098L413.69 208.098L412.709 207.902L412.109 210.902L413.09 211.098ZM413.37 208.47L416.67 207.27L416.328 206.33L413.028 207.53L413.37 208.47ZM416.664 207.272C425.425 204.216 430.656 198.277 432.291 189.491L431.308 189.309C429.742 197.723 424.774 203.384 416.335 206.328L416.664 207.272ZM432.291 189.492L447.891 106.092L446.908 105.908L431.308 189.308L432.291 189.492ZM447.89 106.098C450.09 95.0941 452.191 83.8902 454.192 72.4864L453.207 72.3136C451.207 83.7098 449.108 94.9059 446.909 105.902L447.89 106.098ZM454.192 72.4849C456.192 60.8848 458.392 48.0846 460.792 34.0845L459.806 33.9155C457.406 47.9154 455.206 60.7152 453.206 72.315L454.192 72.4849ZM460.792 34.0841C461.506 29.9036 461.056 26.3286 459.383 23.4019C457.711 20.4755 454.854 18.2623 450.879 16.7333L450.52 17.6667C454.344 19.1377 456.987 21.2244 458.515 23.8981C460.043 26.5714 460.493 29.8964 459.806 33.9158L460.792 34.0841ZM450.885 16.7358L447.885 15.5358L447.514 16.4642L450.514 17.6642L450.885 16.7358ZM448.19 16.098L448.79 13.0981L447.809 12.9019L447.209 15.9019L448.19 16.098ZM448.299 13.5H513.699V12.5H448.299V13.5ZM513.699 13.5C539.455 13.5 558.008 18.4952 569.473 28.3787L570.126 27.6213C558.391 17.5048 539.543 12.5 513.699 12.5V13.5ZM569.48 28.3846C581.158 38.0837 586.999 50.9391 586.999 67H587.999C587.999 50.6609 582.04 37.5163 570.119 27.6154L569.48 28.3846ZM586.999 67C586.999 78.4955 583.632 89.2999 576.883 99.4226L577.715 99.9773C584.567 89.7001 587.999 78.7044 587.999 67H586.999ZM576.882 99.4246C570.345 109.329 560.327 117.374 546.792 123.545L547.207 124.455C560.871 118.226 571.053 110.071 577.717 99.9754L576.882 99.4246ZM546.795 123.544C533.479 129.506 516.654 132.5 496.299 132.5V133.5C516.744 133.5 533.719 130.494 547.204 124.456L546.795 123.544ZM496.299 132.5H483.099V133.5H496.299V132.5ZM482.609 132.902C481.008 140.905 479.308 149.808 477.507 159.61L478.491 159.79C480.291 149.992 481.99 141.095 483.59 133.098L482.609 132.902ZM477.506 159.618C475.906 169.215 474.207 178.912 472.407 188.71L473.391 188.89C475.191 179.088 476.892 169.385 478.492 159.782L477.506 159.618ZM472.405 188.725C471.693 193.403 472.244 197.353 474.119 200.529C475.994 203.707 479.156 206.045 483.535 207.572L483.864 206.628C479.643 205.155 476.704 202.943 474.98 200.021C473.255 197.097 472.705 193.397 473.394 188.875L472.405 188.725ZM483.578 207.585L487.178 208.485L487.42 207.515L483.82 206.615L483.578 207.585ZM486.809 207.902L486.209 210.902L487.19 211.098L487.79 208.098L486.809 207.902ZM486.699 210.5H412.599V211.5H486.699V210.5ZM484.299 127.5H495.399V126.5H484.299V127.5ZM495.399 127.5C510.734 127.5 523.175 122.045 532.676 111.128L531.922 110.472C522.623 121.155 510.465 126.5 495.399 126.5V127.5ZM532.679 111.125C542.179 100.008 546.899 84.7797 546.899 65.5H545.899C545.899 84.6203 541.22 99.5917 531.919 110.475L532.679 111.125ZM546.899 65.5C546.899 50.4432 543.889 38.8202 537.799 30.7L536.999 31.3C542.909 39.1798 545.899 50.5568 545.899 65.5H546.899ZM537.799 30.7C531.693 22.5577 522.935 18.5 511.599 18.5V19.5C522.664 19.5 531.106 23.4423 536.999 31.3L537.799 30.7ZM511.599 18.5H504.399V19.5H511.599V18.5ZM503.907 18.9125C500.707 36.9107 497.408 54.909 494.008 72.9072L494.991 73.0928C498.391 55.091 501.691 37.0893 504.892 19.0875L503.907 18.9125ZM494.008 72.9072C490.608 90.9072 487.208 108.907 483.808 126.907L484.791 127.093C488.191 109.093 491.591 91.0928 494.991 73.0928L494.008 72.9072ZM573.077 213.1L572.791 213.51L572.933 213.609L573.106 213.599L573.077 213.1ZM570.077 211L569.588 210.898L569.521 211.221L569.791 211.41L570.077 211ZM592.877 101.2L593.367 101.302L593.368 101.294L592.877 101.2ZM591.977 89.8L591.552 90.062L591.556 90.0698L591.561 90.0773L591.977 89.8ZM583.877 83.5L583.666 83.9531L583.675 83.9571L583.683 83.9608L583.877 83.5ZM579.377 81.4L578.887 81.3019L578.81 81.687L579.166 81.8531L579.377 81.4ZM579.977 78.4L579.827 77.9232L579.545 78.0123L579.487 78.3019L579.977 78.4ZM632.177 61.9L632.512 61.5283L632.299 61.3371L632.027 61.4232L632.177 61.9ZM635.177 64.6L635.671 64.6807L635.715 64.4111L635.512 64.2283L635.177 64.6ZM627.077 114.1L626.584 114.019L627.535 114.3L627.077 114.1ZM659.477 69.4L659.775 69.8016L659.783 69.7954L659.477 69.4ZM693.077 67.3L692.744 67.6726L692.75 67.6776L692.755 67.6824L693.077 67.3ZM693.677 94L693.314 93.6567L693.309 93.6622L693.304 93.6678L693.677 94ZM667.877 96.1L667.62 96.5287L667.628 96.5336L667.636 96.5381L667.877 96.1ZM656.177 85.9L656.556 85.5732L656.252 85.2216L655.879 85.4986L656.177 85.9ZM638.177 106.3L638.604 106.56L638.607 106.556L638.177 106.3ZM624.377 133.3L623.918 133.103L623.899 133.147L623.889 133.194L624.377 133.3ZM621.377 147.1L620.889 146.994L620.888 146.998L621.377 147.1ZM615.077 178.9L614.586 178.807L614.586 178.807L615.077 178.9ZM609.077 211L609.106 211.499L609.498 211.476L609.569 211.091L609.077 211ZM573.364 212.69L570.364 210.59L569.791 211.41L572.791 213.51L573.364 212.69ZM570.567 211.102L593.367 101.302L592.388 101.098L569.588 210.898L570.567 211.102ZM593.368 101.294C594.374 96.0628 594.107 92.0933 592.393 89.5226L591.561 90.0773C593.048 92.3067 593.38 95.9372 592.386 101.106L593.368 101.294ZM592.403 89.5379C590.732 86.8228 587.934 84.6657 584.071 83.0392L583.683 83.9608C587.42 85.5343 590.022 87.5772 591.552 90.062L592.403 89.5379ZM584.089 83.0469L579.589 80.9469L579.166 81.8531L583.666 83.9531L584.089 83.0469ZM579.868 81.4981L580.468 78.498L579.487 78.3019L578.887 81.3019L579.868 81.4981ZM580.128 78.8767L632.328 62.3767L632.027 61.4232L579.827 77.9232L580.128 78.8767ZM631.843 62.2716L634.843 64.9716L635.512 64.2283L632.512 61.5283L631.843 62.2716ZM634.684 64.5192L626.584 114.019L627.571 114.181L635.671 64.6807L634.684 64.5192ZM627.535 114.3C631.723 104.73 636.606 96.0607 642.184 88.2916L641.371 87.7084C635.749 95.5393 630.832 104.27 626.619 113.9L627.535 114.3ZM642.184 88.2916C647.76 80.5238 653.626 74.3643 659.775 69.8015L659.179 68.9984C652.929 73.6357 646.994 79.8762 641.371 87.7084L642.184 88.2916ZM659.783 69.7954C665.919 65.045 672.015 62.7 678.077 62.7V61.7C671.74 61.7 665.435 64.155 659.171 69.0046L659.783 69.7954ZM678.077 62.7C684.182 62.7 689.054 64.3715 692.744 67.6726L693.411 66.9274C689.5 63.4285 684.373 61.7 678.077 61.7V62.7ZM692.755 67.6824C696.432 70.7785 698.277 74.9329 698.277 80.2H699.277C699.277 74.6671 697.323 70.2215 693.399 66.9175L692.755 67.6824ZM698.277 80.2C698.277 85.6904 696.615 90.1618 693.314 93.6567L694.041 94.3433C697.54 90.6381 699.277 85.9096 699.277 80.2H698.277ZM693.304 93.6678C690.214 97.1433 685.96 98.9 680.477 98.9V99.9C686.195 99.9 690.74 98.0567 694.051 94.3322L693.304 93.6678ZM680.477 98.9C676.165 98.9 672.047 97.8229 668.118 95.6619L667.636 96.5381C671.707 98.7771 675.99 99.9 680.477 99.9V98.9ZM668.135 95.6712C664.19 93.3043 660.329 89.9425 656.556 85.5732L655.799 86.2268C659.625 90.6575 663.565 94.0956 667.62 96.5287L668.135 95.6712ZM655.879 85.4986C648.82 90.7425 642.777 97.5944 637.748 106.044L638.607 106.556C643.577 98.2056 649.535 91.4575 656.476 86.3014L655.879 85.4986ZM637.75 106.04C632.737 114.262 628.126 123.284 623.918 133.103L624.837 133.497C629.029 123.716 633.618 114.738 638.604 106.56L637.75 106.04ZM623.889 133.194L620.889 146.994L621.866 147.206L624.866 133.406L623.889 133.194ZM620.888 146.998C618.687 157.601 616.587 168.204 614.586 178.807L615.569 178.993C617.568 168.396 619.668 157.799 621.867 147.202L620.888 146.998ZM614.586 178.807C612.586 189.408 610.586 200.108 608.586 210.909L609.569 211.091C611.569 200.292 613.569 189.592 615.569 178.993L614.586 178.807ZM609.048 210.501L573.048 212.601L573.106 213.599L609.106 211.499L609.048 210.501ZM700.816 209.5L700.596 209.949L700.605 209.953L700.816 209.5ZM680.416 190.9L679.986 191.156L679.989 191.16L680.416 190.9ZM679.216 122.5L678.748 122.323L678.745 122.33L679.216 122.5ZM697.516 91.6L697.893 91.9275L697.897 91.9233L697.516 91.6ZM724.816 70L725.039 70.4472L725.039 70.4472L724.816 70ZM786.916 68.5L786.688 68.945L786.694 68.9483L786.701 68.9514L786.916 68.5ZM806.716 86.8L806.284 87.0526L806.289 87.0603L806.716 86.8ZM807.616 154.9L807.147 154.725L807.145 154.73L807.616 154.9ZM789.616 186.1L789.234 185.777L789.234 185.777L789.616 186.1ZM762.616 207.7L762.843 208.145L762.846 208.144L762.616 207.7ZM749.716 201.1L749.343 200.766L749.343 200.767L749.716 201.1ZM763.216 178.3L763.679 178.487L763.681 178.484L763.216 178.3ZM771.916 146.8L772.408 146.886L772.408 146.885L771.916 146.8ZM769.816 77.8L770.257 77.5654L770.257 77.5654L769.816 77.8ZM738.916 76.6L738.556 76.2529L738.556 76.2529L738.916 76.6ZM724.816 99.1L725.276 99.2958L725.276 99.2958L724.816 99.1ZM715.516 130.3L716.007 130.395L716.007 130.395L715.516 130.3ZM718.216 199.9L717.788 200.159L717.792 200.165L718.216 199.9ZM729.316 215C718.981 215 709.554 213.013 701.026 209.047L700.605 209.953C709.277 213.987 718.85 216 729.316 216V215ZM701.035 209.051C692.521 204.893 685.793 198.758 680.843 190.64L679.989 191.16C685.038 199.442 691.91 205.707 700.596 209.949L701.035 209.051ZM680.845 190.644C675.903 182.342 673.416 171.837 673.416 159.1H672.416C672.416 171.963 674.928 182.658 679.986 191.156L680.845 190.644ZM673.416 159.1C673.416 146.356 675.506 134.214 679.686 122.67L678.745 122.33C674.525 133.986 672.416 146.244 672.416 159.1H673.416ZM679.683 122.677C684.063 111.13 690.134 100.881 697.893 91.9275L697.138 91.2725C689.298 100.319 683.168 110.67 678.748 122.323L679.683 122.677ZM697.897 91.9233C705.655 82.7729 714.702 75.6159 725.039 70.4472L724.592 69.5528C714.129 74.7841 704.976 82.0271 697.134 91.2766L697.897 91.9233ZM725.039 70.4472C735.366 65.2836 746.589 62.7 758.716 62.7V61.7C746.442 61.7 735.065 64.3163 724.592 69.5528L725.039 70.4472ZM758.716 62.7C769.248 62.7 778.568 64.7862 786.688 68.945L787.144 68.055C778.863 63.8137 769.383 61.7 758.716 61.7V62.7ZM786.701 68.9514C795.008 72.9074 801.534 78.9371 806.284 87.0526L807.147 86.5474C802.298 78.2629 795.623 72.0926 787.131 68.0486L786.701 68.9514ZM806.289 87.0603C811.228 95.1599 813.716 105.562 813.716 118.3H814.716C814.716 105.438 812.204 94.8401 807.143 86.5397L806.289 87.0603ZM813.716 118.3C813.716 130.84 811.526 142.981 807.147 154.725L808.084 155.075C812.505 143.219 814.716 130.96 814.716 118.3H813.716ZM807.145 154.73C802.965 166.275 796.995 176.623 789.234 185.777L789.997 186.423C797.836 177.177 803.866 166.725 808.086 155.07L807.145 154.73ZM789.234 185.777C781.676 194.728 772.727 201.887 762.385 207.256L762.846 208.144C773.304 202.713 782.356 195.472 789.998 186.423L789.234 185.777ZM762.389 207.255C752.262 212.417 741.241 215 729.316 215V216C741.391 216 752.569 213.383 762.843 208.145L762.389 207.255ZM732.916 210C739.288 210 745.015 207.115 750.089 201.433L749.343 200.767C744.416 206.285 738.944 209 732.916 209V210ZM750.088 201.434C755.336 195.58 759.864 187.926 763.679 178.487L762.752 178.113C758.968 187.474 754.495 195.02 749.343 200.766L750.088 201.434ZM763.681 178.484C767.494 168.849 770.403 158.316 772.408 146.886L771.423 146.714C769.428 158.084 766.537 168.551 762.751 178.116L763.681 178.484ZM772.408 146.885C774.413 135.258 775.416 123.729 775.416 112.3H774.416C774.416 123.671 773.418 135.142 771.423 146.715L772.408 146.885ZM775.416 112.3C775.416 95.6981 773.721 84.0851 770.257 77.5654L769.374 78.0346C772.71 84.3149 774.416 95.7019 774.416 112.3H775.416ZM770.257 77.5654C766.805 71.0665 762.264 67.7 756.616 67.7V68.7C761.768 68.7 766.027 71.7334 769.374 78.0346L770.257 77.5654ZM756.616 67.7C750.051 67.7 744.028 70.5778 738.556 76.2529L739.276 76.9471C744.603 71.4222 750.38 68.7 756.616 68.7V67.7ZM738.556 76.2529C733.102 81.9082 728.372 89.4647 724.356 98.9042L725.276 99.2958C729.259 89.9353 733.929 82.4918 739.276 76.9471L738.556 76.2529ZM724.356 98.9042C720.34 108.341 717.23 118.775 715.025 130.205L716.007 130.395C718.201 119.025 721.291 108.659 725.276 99.2958L724.356 98.9042ZM715.025 130.205C712.819 141.636 711.716 153.068 711.716 164.5H712.716C712.716 153.132 713.812 141.764 716.007 130.395L715.025 130.205ZM711.716 164.5C711.716 181.506 713.71 193.431 717.788 200.159L718.643 199.641C714.721 193.169 712.716 181.494 712.716 164.5H711.716ZM717.792 200.165C721.852 206.661 726.892 210 732.916 210V209C727.34 209 722.579 205.939 718.64 199.635L717.792 200.165ZM851.647 40L851.311 40.3709L851.321 40.3796L851.647 40ZM852.547 7.89999L852.885 8.26856L852.885 8.26795L852.547 7.89999ZM884.047 6.69998L883.693 7.05365L883.703 7.06248L884.047 6.69998ZM882.847 38.5L882.501 38.139L882.501 38.139L882.847 38.5ZM777.547 282.7L777.057 282.798L777.144 283.233L777.586 283.198L777.547 282.7ZM776.647 278.2L776.455 277.738L776.076 277.896L776.157 278.298L776.647 278.2ZM789.547 271.6L789.28 271.177L789.28 271.177L789.547 271.6ZM799.147 260.5L798.712 260.253L798.707 260.261L798.703 260.269L799.147 260.5ZM808.447 235.9L807.967 235.759L807.964 235.77L808.447 235.9ZM817.447 196L816.955 195.908L816.955 195.91L817.447 196ZM835.147 101.5L834.658 101.395L834.655 101.408L835.147 101.5ZM825.547 83.2L825.757 82.7463L825.751 82.7433L825.744 82.7404L825.547 83.2ZM821.347 81.4L820.849 81.3547L820.816 81.7165L821.15 81.8596L821.347 81.4ZM821.647 78.1L821.508 77.6196L821.18 77.7144L821.149 78.0547L821.647 78.1ZM877.747 61.9L878.1 61.5464L877.892 61.3377L877.608 61.4196L877.747 61.9ZM880.147 64.3L880.638 64.3959L880.689 64.1347L880.5 63.9464L880.147 64.3ZM854.647 194.8L855.138 194.896L855.138 194.896L854.647 194.8ZM825.247 260.2L824.891 259.849L824.883 259.857L824.876 259.865L825.247 260.2ZM804.847 275.5L804.623 275.053L804.623 275.053L804.847 275.5ZM866.347 44.9C860.865 44.9 856.08 43.1416 851.972 39.6204L851.321 40.3796C855.613 44.0583 860.629 45.9 866.347 45.9V44.9ZM851.982 39.6292C847.898 35.9336 845.847 31.0737 845.847 25H844.847C844.847 31.3263 846.996 36.4664 851.311 40.3708L851.982 39.6292ZM845.847 25C845.847 18.1284 848.196 12.5662 852.885 8.26856L852.209 7.53141C847.297 12.0338 844.847 17.8716 844.847 25H845.847ZM852.885 8.26795C857.803 3.74402 863.285 1.49999 869.347 1.49999V0.499986C863.009 0.499986 857.291 2.85595 852.208 7.53202L852.885 8.26795ZM869.347 1.49999C875.231 1.49999 879.998 3.35862 883.693 7.05354L884.4 6.34643C880.495 2.44135 875.463 0.499986 869.347 0.499986V1.49999ZM883.703 7.06248C887.594 10.7593 889.547 15.5237 889.547 21.4H890.547C890.547 15.2763 888.5 10.2407 884.391 6.33748L883.703 7.06248ZM889.547 21.4C889.547 28.0672 887.2 33.6357 882.501 38.139L883.193 38.861C888.094 34.1643 890.547 28.3328 890.547 21.4H889.547ZM882.501 38.139C877.787 42.6569 872.408 44.9 866.347 44.9V45.9C872.686 45.9 878.307 43.5431 883.193 38.861L882.501 38.139ZM778.037 282.602L777.137 278.102L776.157 278.298L777.057 282.798L778.037 282.602ZM776.839 278.662C781.661 276.652 785.987 274.44 789.814 272.023L789.28 271.177C785.507 273.56 781.233 275.748 776.455 277.738L776.839 278.662ZM789.814 272.023C793.705 269.565 796.96 265.79 799.59 260.731L798.703 260.269C796.134 265.21 792.988 268.835 789.28 271.177L789.814 272.023ZM799.582 260.747C803.011 254.695 806.124 246.451 808.93 236.03L807.964 235.77C805.17 246.149 802.083 254.305 798.712 260.253L799.582 260.747ZM808.927 236.041C811.933 225.818 814.937 212.499 817.939 196.09L816.955 195.91C813.957 212.301 810.96 225.582 807.967 235.759L808.927 236.041ZM817.938 196.092L835.638 101.592L834.655 101.408L816.955 195.908L817.938 196.092ZM835.636 101.605C836.554 97.3195 836.206 93.5698 834.54 90.3927C832.875 87.2188 829.926 84.6781 825.757 82.7463L825.337 83.6536C829.368 85.5219 832.119 87.9312 833.654 90.8573C835.187 93.7802 835.54 97.2804 834.658 101.395L835.636 101.605ZM825.744 82.7404L821.544 80.9404L821.15 81.8596L825.35 83.6596L825.744 82.7404ZM821.845 81.4453L822.145 78.1453L821.149 78.0547L820.849 81.3547L821.845 81.4453ZM821.786 78.5804L877.886 62.3804L877.608 61.4196L821.508 77.6196L821.786 78.5804ZM877.393 62.2536L879.793 64.6535L880.5 63.9464L878.1 61.5464L877.393 62.2536ZM879.656 64.2041L854.156 194.704L855.138 194.896L880.638 64.3959L879.656 64.2041ZM854.156 194.704C848.366 224.255 838.594 245.947 824.891 259.849L825.603 260.551C839.5 246.453 849.328 224.545 855.138 194.896L854.156 194.704ZM824.876 259.865C819.32 266.015 812.572 271.079 804.623 275.053L805.07 275.947C813.122 271.921 819.973 266.785 825.618 260.535L824.876 259.865ZM804.623 275.053C796.689 279.02 787.653 281.406 777.508 282.202L777.586 283.198C787.841 282.394 797.005 279.98 805.07 275.947L804.623 275.053ZM886.685 200.8L886.324 201.146L886.324 201.146L886.685 200.8ZM879.185 122.5L879.653 122.677L879.653 122.677L879.185 122.5ZM897.485 91.6L897.108 91.2719L897.107 91.2725L897.485 91.6ZM925.085 70L924.862 69.5528L924.862 69.5528L925.085 70ZM987.785 70.9L987.455 71.2756L987.461 71.2809L987.467 71.286L987.785 70.9ZM986.885 116.5L986.527 116.151L986.522 116.156L986.885 116.5ZM956.285 137.2L956.492 137.655L956.498 137.653L956.285 137.2ZM909.785 151L909.697 150.508L909.279 150.583L909.285 151.007L909.785 151ZM966.485 184L966.754 184.421L966.763 184.416L966.485 184ZM984.785 167.2L985.072 166.79L984.683 166.518L984.391 166.892L984.785 167.2ZM987.785 169.3L988.23 169.528L988.429 169.14L988.072 168.89L987.785 169.3ZM972.185 191.5L971.816 191.163L971.811 191.168L972.185 191.5ZM950.585 208.9L950.822 209.341L950.83 209.336L950.585 208.9ZM941.885 76.3L941.587 75.8981L941.58 75.9037L941.885 76.3ZM926.885 92.8L926.473 92.5172L926.471 92.5198L926.885 92.8ZM915.185 116.5L914.714 116.332L914.712 116.339L915.185 116.5ZM909.785 144.7L909.286 144.67L909.244 145.366L909.917 145.182L909.785 144.7ZM956.585 121L956.224 120.654L956.221 120.658L956.585 121ZM966.785 74.5L966.419 74.8402L966.419 74.8402L966.785 74.5ZM923.285 215C908.406 215 896.341 210.145 887.046 200.454L886.324 201.146C895.829 211.055 908.165 216 923.285 216V215ZM887.046 200.454C877.761 190.774 873.085 177.014 873.085 159.1H872.085C872.085 177.186 876.809 191.226 886.324 201.146L887.046 200.454ZM873.085 159.1C873.085 146.359 875.275 134.219 879.653 122.677L878.718 122.323C874.295 133.981 872.085 146.241 872.085 159.1H873.085ZM879.653 122.677C884.033 111.13 890.103 100.881 897.863 91.9275L897.107 91.2725C889.267 100.319 883.138 110.67 878.718 122.323L879.653 122.677ZM897.862 91.9281C905.822 82.775 914.97 75.6165 925.309 70.4472L924.862 69.5528C914.4 74.7835 905.149 82.025 897.108 91.2719L897.862 91.9281ZM925.309 70.4472C935.636 65.2836 946.859 62.7 958.985 62.7V61.7C946.711 61.7 935.334 64.3163 924.862 69.5528L925.309 70.4472ZM958.985 62.7C971.516 62.7 980.979 65.5845 987.455 71.2756L988.115 70.5244C981.391 64.6155 971.655 61.7 958.985 61.7V62.7ZM987.467 71.286C994.143 76.7839 997.485 84.1379 997.485 93.4H998.485C998.485 83.8621 995.027 76.2161 988.103 70.514L987.467 71.286ZM997.485 93.4C997.485 101.029 993.869 108.61 986.527 116.151L987.243 116.849C994.701 109.19 998.485 101.371 998.485 93.4H997.485ZM986.522 116.156C979.378 123.697 969.237 130.564 956.073 136.747L956.498 137.653C969.734 131.436 979.992 124.503 987.248 116.844L986.522 116.156ZM956.078 136.745C942.924 142.724 927.465 147.314 909.697 150.508L909.874 151.492C927.705 148.286 943.246 143.676 956.492 137.655L956.078 136.745ZM909.285 151.007C909.486 164.86 912.496 175.105 918.415 181.636L919.156 180.964C913.474 174.695 910.484 164.74 910.285 150.993L909.285 151.007ZM918.415 181.636C924.327 188.159 932.472 191.4 942.785 191.4V190.4C932.698 190.4 924.844 187.241 919.156 180.964L918.415 181.636ZM942.785 191.4C951.48 191.4 959.473 189.073 966.754 184.421L966.216 183.579C959.097 188.127 951.29 190.4 942.785 190.4V191.4ZM966.763 184.416C974.004 179.588 980.144 173.953 985.179 167.508L984.391 166.892C979.426 173.247 973.366 178.812 966.208 183.584L966.763 184.416ZM984.498 167.61L987.498 169.71L988.072 168.89L985.072 166.79L984.498 167.61ZM987.34 169.072C983.362 176.829 978.189 184.193 971.816 191.163L972.554 191.837C978.982 184.807 984.208 177.371 988.23 169.528L987.34 169.072ZM971.811 191.168C965.648 198.126 958.492 203.891 950.341 208.464L950.83 209.336C959.078 204.709 966.322 198.874 972.559 191.832L971.811 191.168ZM950.349 208.459C942.227 212.818 933.209 215 923.285 215V216C933.361 216 942.544 213.782 950.822 209.341L950.349 208.459ZM956.885 69.8C952.139 69.8 947.036 71.8626 941.588 75.8982L942.183 76.7018C947.535 72.7374 952.432 70.8 956.885 70.8V69.8ZM941.58 75.9037C936.329 79.9435 931.294 85.486 926.473 92.5172L927.298 93.0828C932.076 86.114 937.042 80.6565 942.19 76.6963L941.58 75.9037ZM926.471 92.5198C921.844 99.36 917.926 107.299 914.714 116.332L915.656 116.667C918.844 107.701 922.726 99.84 927.299 93.0801L926.471 92.5198ZM914.712 116.339C911.696 125.184 909.889 134.629 909.286 144.67L910.284 144.73C910.882 134.771 912.674 125.416 915.658 116.661L914.712 116.339ZM909.917 145.182C931.951 139.173 947.656 131.242 956.95 121.342L956.221 120.658C947.114 130.358 931.619 138.227 909.654 144.218L909.917 145.182ZM956.946 121.346C966.426 111.463 971.185 100.242 971.185 87.7H970.185C970.185 99.9582 965.544 110.937 956.224 120.654L956.946 121.346ZM971.185 87.7C971.185 81.6428 969.875 77.0928 967.152 74.1598L966.419 74.8402C968.895 77.5072 970.185 81.7572 970.185 87.7H971.185ZM967.152 74.1598C964.452 71.2526 961.017 69.8 956.885 69.8V70.8C960.753 70.8 963.918 72.1474 966.419 74.8402L967.152 74.1598ZM1001.74 200.5L1001.38 200.842L1001.38 200.842L1001.74 200.5ZM994.244 122.2L994.71 122.38L994.711 122.377L994.244 122.2ZM1012.54 91.3L1012.17 90.9678L1012.17 90.9725L1012.54 91.3ZM1039.84 70L1039.62 69.5528L1039.62 69.5545L1039.84 70ZM1092.64 65.5L1092.47 65.9695L1092.48 65.9712L1092.64 65.5ZM1107.34 74.8L1106.97 75.1346L1106.98 75.1444L1107.34 74.8ZM1112.74 88.9L1113.24 88.9185L1113.24 88.9185L1112.74 88.9ZM1107.64 101.8L1107.99 102.165L1107.99 102.159L1108 102.154L1107.64 101.8ZM1081.54 101.2L1081.9 100.846L1081.9 100.846L1081.54 101.2ZM1073.44 89.5L1072.97 89.6664L1072.98 89.687L1072.99 89.7069L1073.44 89.5ZM1071.64 84.4L1072.12 84.2336L1072.11 84.219L1072.1 84.2047L1071.64 84.4ZM1064.14 72.7L1063.86 73.1096L1063.88 73.1256L1063.9 73.1389L1064.14 72.7ZM1053.64 76.9L1053.32 76.5171L1053.32 76.5194L1053.64 76.9ZM1038.34 95.5L1037.92 95.2379L1037.91 95.246L1038.34 95.5ZM1027.24 121.3L1026.76 121.157L1026.76 121.157L1027.24 121.3ZM1032.64 183.4L1032.27 183.732L1032.27 183.738L1032.28 183.743L1032.64 183.4ZM1099.84 167.8L1100.13 167.393L1099.73 167.106L1099.44 167.505L1099.84 167.8ZM1104.04 170.8L1104.48 171.037L1104.69 170.649L1104.33 170.393L1104.04 170.8ZM1087.84 192.7L1087.48 192.352L1087.48 192.352L1087.84 192.7ZM1065.04 209.2L1064.82 208.751L1064.82 208.753L1065.04 209.2ZM1038.04 215C1023.37 215 1011.41 210.049 1002.11 200.158L1001.38 200.842C1010.88 210.951 1023.12 216 1038.04 216V215ZM1002.11 200.158C992.82 190.276 988.144 176.414 988.144 158.5H987.144C987.144 176.586 991.868 190.724 1001.38 200.842L1002.11 200.158ZM988.144 158.5C988.144 145.759 990.333 133.72 994.71 122.38L993.777 122.02C989.354 133.48 987.144 145.641 987.144 158.5H988.144ZM994.711 122.377C999.091 110.83 1005.16 100.581 1012.92 91.6275L1012.17 90.9725C1004.33 100.019 998.196 110.37 993.776 122.023L994.711 122.377ZM1012.92 91.6322C1020.88 82.6763 1029.93 75.6157 1040.07 70.4454L1039.62 69.5545C1029.36 74.7843 1020.21 81.9237 1012.17 90.9678L1012.92 91.6322ZM1040.07 70.4472C1050.4 65.2825 1061.42 62.7 1073.14 62.7V61.7C1061.27 61.7 1050.09 64.3175 1039.62 69.5528L1040.07 70.4472ZM1073.14 62.7C1080.09 62.7 1086.53 63.7915 1092.47 65.9694L1092.82 65.0306C1086.76 62.8085 1080.2 61.7 1073.14 61.7V62.7ZM1092.48 65.9712C1098.62 68.1495 1103.44 71.2087 1106.97 75.1345L1107.72 74.4655C1104.05 70.3913 1099.07 67.2505 1092.81 65.0288L1092.48 65.9712ZM1106.98 75.1444C1110.69 79.0491 1112.44 83.6191 1112.24 88.8815L1113.24 88.9185C1113.45 83.3809 1111.6 78.5509 1107.71 74.4556L1106.98 75.1444ZM1112.24 88.8815C1112.05 94.1813 1110.38 98.3525 1107.29 101.446L1108 102.154C1111.3 98.8475 1113.04 94.4187 1113.24 88.9185L1112.24 88.8815ZM1107.3 101.435C1104.21 104.333 1100.14 105.8 1095.04 105.8V106.8C1100.35 106.8 1104.68 105.267 1107.99 102.165L1107.3 101.435ZM1095.04 105.8C1089.55 105.8 1085.19 104.137 1081.9 100.846L1081.19 101.554C1084.7 105.063 1089.33 106.8 1095.04 106.8V105.8ZM1081.9 100.846C1078.54 97.4891 1075.87 93.6388 1073.9 89.2931L1072.99 89.7069C1075.01 94.1612 1077.75 98.1109 1081.19 101.554L1081.9 100.846ZM1073.92 89.3336L1072.12 84.2336L1071.17 84.5664L1072.97 89.6664L1073.92 89.3336ZM1072.1 84.2047C1070.7 80.8912 1069.36 78.238 1068.09 76.2552C1066.83 74.2851 1065.6 72.9226 1064.38 72.261L1063.9 73.1389C1064.89 73.6774 1066.01 74.8649 1067.25 76.7948C1068.48 78.712 1069.79 81.3088 1071.18 84.5953L1072.1 84.2047ZM1064.43 72.2904C1063.23 71.4491 1061.65 71.5089 1059.83 72.2358C1058.01 72.9648 1055.84 74.4041 1053.32 76.5171L1053.97 77.2828C1056.45 75.1959 1058.53 73.8352 1060.2 73.1642C1061.89 72.4911 1063.06 72.5509 1063.86 73.1096L1064.43 72.2904ZM1053.32 76.5194C1047.87 81.1616 1042.74 87.4056 1037.92 95.2379L1038.77 95.762C1043.55 87.9944 1048.62 81.8384 1053.97 77.2806L1053.32 76.5194ZM1037.91 95.246C1033.29 103.084 1029.58 111.722 1026.76 121.157L1027.72 121.443C1030.51 112.078 1034.2 103.516 1038.77 95.754L1037.91 95.246ZM1026.76 121.157C1023.95 130.604 1022.54 140.252 1022.54 150.1H1023.54C1023.54 140.348 1024.94 130.796 1027.72 121.443L1026.76 121.157ZM1022.54 150.1C1022.54 165.157 1025.75 176.401 1032.27 183.732L1033.02 183.068C1026.73 175.999 1023.54 165.043 1023.54 150.1H1022.54ZM1032.28 183.743C1038.99 190.858 1047.93 194.4 1059.04 194.4V193.4C1048.16 193.4 1039.5 189.942 1033.01 183.057L1032.28 183.743ZM1059.04 194.4C1066.36 194.4 1073.55 192.062 1080.62 187.418L1080.07 186.582C1073.14 191.138 1066.13 193.4 1059.04 193.4V194.4ZM1080.62 187.418C1087.68 182.779 1094.22 176.334 1100.25 168.095L1099.44 167.505C1093.47 175.666 1087.01 182.021 1080.07 186.582L1080.62 187.418ZM1099.55 168.207L1103.75 171.207L1104.33 170.393L1100.13 167.393L1099.55 168.207ZM1103.6 170.563C1099.43 178.32 1094.06 185.583 1087.48 192.352L1088.2 193.048C1094.83 186.217 1100.26 178.88 1104.48 171.037L1103.6 170.563ZM1087.48 192.352C1080.93 199.11 1073.37 204.576 1064.82 208.751L1065.26 209.649C1073.91 205.424 1081.56 199.89 1088.2 193.048L1087.48 192.352ZM1064.82 208.753C1056.49 212.917 1047.57 215 1038.04 215V216C1047.72 216 1056.8 213.883 1065.27 209.647L1064.82 208.753ZM1116.17 210.7L1115.85 211.081L1115.86 211.09L1115.87 211.098L1116.17 210.7ZM1111.37 183.1L1111.87 183.186L1111.87 183.182L1111.37 183.1ZM1114.07 167.8L1113.59 167.693L1113.58 167.701L1113.58 167.709L1114.07 167.8ZM1134.77 73L1135.26 73.1067L1135.4 72.5H1134.77V73ZM1109.87 73L1109.39 72.8787L1109.23 73.5H1109.87V73ZM1110.77 69.4L1110.72 68.903L1110.37 68.9414L1110.29 69.2787L1110.77 69.4ZM1121.57 68.2L1121.52 67.7028L1121.52 67.7031L1121.57 68.2ZM1136.27 64L1136.51 64.4429L1136.51 64.4429L1136.27 64ZM1148.27 54.7L1147.92 54.3482L1147.91 54.3556L1148.27 54.7ZM1177.07 25.6V25.1H1176.87L1176.72 25.2483L1177.07 25.6ZM1181.57 25.6L1182.06 25.7001L1182.19 25.1H1181.57V25.6ZM1173.17 66.7L1172.68 66.5999L1172.56 67.2H1173.17V66.7ZM1205.87 66.7L1206.36 66.8158L1206.51 66.2H1205.87V66.7ZM1204.37 73V73.5H1204.77L1204.86 73.1158L1204.37 73ZM1171.67 73V72.5H1171.27L1171.18 72.8985L1171.67 73ZM1150.97 172.9L1151.46 173.003L1151.46 173.001L1150.97 172.9ZM1149.17 182.8L1149.67 182.876L1149.67 182.871L1149.17 182.8ZM1150.37 194.2L1150.73 193.846L1150.73 193.846L1150.37 194.2ZM1163.27 192.7L1163.56 193.112L1163.57 193.106L1163.57 193.1L1163.27 192.7ZM1175.27 182.2L1175.59 181.816L1175.25 181.53L1174.93 181.839L1175.27 182.2ZM1178.87 185.2L1179.29 185.48L1179.54 185.105L1179.19 184.816L1178.87 185.2ZM1131.77 215C1125.66 215 1120.58 213.425 1116.48 210.302L1115.87 211.098C1120.17 214.375 1125.48 216 1131.77 216V215ZM1116.5 210.319C1112.63 207.035 1110.67 202.288 1110.67 196H1109.67C1109.67 202.512 1111.71 207.565 1115.85 211.081L1116.5 210.319ZM1110.67 196C1110.67 192.033 1111.07 187.762 1111.87 183.186L1110.88 183.014C1110.08 187.638 1109.67 191.967 1109.67 196H1110.67ZM1111.87 183.182C1112.67 178.385 1113.57 173.288 1114.57 167.891L1113.58 167.709C1112.58 173.112 1111.68 178.215 1110.88 183.018L1111.87 183.182ZM1114.56 167.907L1135.26 73.1067L1134.29 72.8933L1113.59 167.693L1114.56 167.907ZM1134.77 72.5H1109.87V73.5H1134.77V72.5ZM1110.36 73.1213L1111.26 69.5213L1110.29 69.2787L1109.39 72.8787L1110.36 73.1213ZM1110.83 69.8969L1121.63 68.6969L1121.52 67.7031L1110.72 68.903L1110.83 69.8969ZM1121.63 68.6972C1127.28 68.0917 1132.24 66.677 1136.51 64.4429L1136.04 63.5571C1131.91 65.723 1127.07 67.1083 1121.52 67.7028L1121.63 68.6972ZM1136.51 64.4429C1140.76 62.2137 1144.8 59.0778 1148.64 55.0444L1147.91 54.3556C1144.14 58.3222 1140.19 61.3863 1136.04 63.5571L1136.51 64.4429ZM1148.63 55.0517L1177.43 25.9517L1176.72 25.2483L1147.92 54.3483L1148.63 55.0517ZM1177.07 26.1H1181.57V25.1H1177.07V26.1ZM1181.08 25.4999L1172.68 66.5999L1173.66 66.8001L1182.06 25.7001L1181.08 25.4999ZM1173.17 67.2H1205.87V66.2H1173.17V67.2ZM1205.39 66.5842L1203.89 72.8842L1204.86 73.1158L1206.36 66.8158L1205.39 66.5842ZM1204.37 72.5H1171.67V73.5H1204.37V72.5ZM1171.18 72.8985L1150.48 172.799L1151.46 173.001L1172.16 73.1014L1171.18 72.8985ZM1150.48 172.797C1149.68 176.604 1149.08 179.915 1148.68 182.729L1149.67 182.871C1150.07 180.085 1150.66 176.796 1151.46 173.003L1150.48 172.797ZM1148.68 182.724C1148.28 185.339 1148.07 187.566 1148.07 189.4H1149.07C1149.07 187.634 1149.27 185.461 1149.67 182.876L1148.68 182.724ZM1148.07 189.4C1148.07 191.507 1148.71 193.243 1150.02 194.554L1150.73 193.846C1149.64 192.757 1149.07 191.293 1149.07 189.4H1148.07ZM1150.02 194.554C1151.29 195.826 1152.71 196.5 1154.27 196.5V195.5C1153.03 195.5 1151.86 194.974 1150.73 193.846L1150.02 194.554ZM1154.27 196.5C1157.21 196.5 1160.31 195.348 1163.56 193.112L1162.99 192.288C1159.84 194.452 1156.94 195.5 1154.27 195.5V196.5ZM1163.57 193.1C1166.8 190.683 1170.81 187.167 1175.62 182.561L1174.93 181.839C1170.13 186.433 1166.15 189.917 1162.97 192.3L1163.57 193.1ZM1174.95 182.584L1178.55 185.584L1179.19 184.816L1175.59 181.816L1174.95 182.584ZM1178.46 184.92C1173.49 192.273 1167.03 199.137 1159.06 205.51L1159.69 206.29C1167.72 199.863 1174.26 192.927 1179.29 185.48L1178.46 184.92ZM1159.06 205.51C1151.15 211.837 1142.06 215 1131.77 215V216C1142.29 216 1151.6 212.763 1159.69 206.29L1159.06 205.51ZM1190.06 208L1190.33 207.579L1190.33 207.579L1190.06 208ZM1215.26 187L1214.76 187.097L1214.77 187.105L1215.26 187ZM1217.06 195.4L1216.57 195.505L1216.57 195.516L1217.06 195.4ZM1220.66 205.6L1220.22 205.837L1220.22 205.85L1220.23 205.862L1220.66 205.6ZM1242.86 203.2L1243.23 203.535L1243.23 203.535L1242.86 203.2ZM1243.16 169.6L1242.74 169.874L1242.74 169.885L1243.16 169.6ZM1225.76 152.5L1225.45 152.894L1225.45 152.899L1225.76 152.5ZM1205.96 132.7L1205.55 132.991L1205.55 132.996L1205.96 132.7ZM1204.76 85L1204.33 84.7339L1204.33 84.7372L1204.76 85ZM1223.66 68.5L1223.87 68.9495L1223.88 68.945L1223.66 68.5ZM1283.36 70L1283.07 70.4091L1283.07 70.4126L1283.36 70ZM1290.86 101.2L1291.22 101.54L1291.23 101.534L1291.23 101.527L1290.86 101.2ZM1259.66 88L1260.14 87.8594L1260.13 87.8455L1260.13 87.8318L1259.66 88ZM1256.66 79.6L1256.17 79.7213L1256.18 79.7451L1256.18 79.7682L1256.66 79.6ZM1253.06 71.2L1252.68 71.5292L1252.68 71.5292L1253.06 71.2ZM1236.56 74.2L1236.91 74.5535L1236.91 74.5485L1236.92 74.5433L1236.56 74.2ZM1237.76 110.5L1237.35 110.787L1237.35 110.795L1237.36 110.802L1237.76 110.5ZM1257.26 128.8L1257.56 128.4L1257.55 128.399L1257.26 128.8ZM1276.46 148L1276.04 148.271L1276.04 148.28L1276.46 148ZM1275.56 193L1275.15 192.712L1275.15 192.712L1275.56 193ZM1254.56 209.5L1254.75 209.959L1254.76 209.955L1254.56 209.5ZM1220.66 215C1208.12 215 1198.02 212.512 1190.33 207.579L1189.79 208.421C1197.69 213.488 1207.99 216 1220.66 216V215ZM1190.33 207.579C1182.67 202.67 1178.86 195.728 1178.86 186.7H1177.86C1177.86 196.072 1181.84 203.33 1189.79 208.421L1190.33 207.579ZM1178.86 186.7C1178.86 182.032 1180.5 177.954 1183.82 174.443L1183.09 173.757C1179.61 177.446 1177.86 181.768 1177.86 186.7H1178.86ZM1183.82 174.443C1187.12 170.953 1191.38 169.2 1196.66 169.2V168.2C1191.13 168.2 1186.6 170.047 1183.09 173.757L1183.82 174.443ZM1196.66 169.2C1201.55 169.2 1205.46 170.687 1208.45 173.631C1211.46 176.587 1213.58 181.055 1214.76 187.097L1215.75 186.903C1214.53 180.745 1212.35 176.063 1209.16 172.919C1205.95 169.763 1201.77 168.2 1196.66 168.2V169.2ZM1214.77 187.105L1216.57 195.505L1217.54 195.295L1215.74 186.895L1214.77 187.105ZM1216.57 195.516C1217.57 199.74 1218.79 203.186 1220.22 205.837L1221.1 205.363C1219.72 202.814 1218.54 199.46 1217.54 195.284L1216.57 195.516ZM1220.23 205.862C1221.96 208.669 1225.17 210 1229.66 210V209C1225.35 209 1222.55 207.731 1221.08 205.338L1220.23 205.862ZM1229.66 210C1234.82 210 1239.35 207.825 1243.23 203.535L1242.48 202.865C1238.77 206.975 1234.49 209 1229.66 209V210ZM1243.23 203.535C1247.13 199.218 1249.06 193.285 1249.06 185.8H1248.06C1248.06 193.115 1246.18 198.782 1242.48 202.865L1243.23 203.535ZM1249.06 185.8C1249.06 180.085 1247.22 174.588 1243.57 169.315L1242.74 169.885C1246.29 175.012 1248.06 180.315 1248.06 185.8H1249.06ZM1243.57 169.326C1240.13 164.057 1234.28 158.316 1226.06 152.101L1225.45 152.899C1233.63 159.084 1239.38 164.743 1242.74 169.874L1243.57 169.326ZM1226.06 152.106C1217.89 145.728 1211.33 139.16 1206.36 132.404L1205.55 132.996C1210.59 139.84 1217.22 146.472 1225.45 152.894L1226.06 152.106ZM1206.36 132.409C1201.43 125.504 1198.96 117.308 1198.96 107.8H1197.96C1197.96 117.492 1200.48 125.896 1205.55 132.991L1206.36 132.409ZM1198.96 107.8C1198.96 99.4879 1201.03 91.9797 1205.18 85.2627L1204.33 84.7372C1200.08 91.6203 1197.96 99.3121 1197.96 107.8H1198.96ZM1205.18 85.2661C1209.52 78.353 1215.75 72.9129 1223.87 68.9494L1223.44 68.0506C1215.16 72.0871 1208.79 77.6469 1204.33 84.7339L1205.18 85.2661ZM1223.88 68.945C1232 64.7881 1241.62 62.7 1252.76 62.7V61.7C1241.49 61.7 1231.71 63.8119 1223.43 68.055L1223.88 68.945ZM1252.76 62.7C1265.7 62.7 1275.78 65.289 1283.07 70.4091L1283.64 69.5909C1276.13 64.311 1265.82 61.7 1252.76 61.7V62.7ZM1283.07 70.4126C1290.56 75.5328 1294.26 82.0874 1294.26 90.1H1295.26C1295.26 81.7126 1291.35 74.8672 1283.64 69.5873L1283.07 70.4126ZM1294.26 90.1C1294.26 94.3937 1292.99 97.9735 1290.48 100.873L1291.23 101.527C1293.92 98.4265 1295.26 94.6063 1295.26 90.1H1294.26ZM1290.49 100.86C1288.01 103.525 1284.27 104.9 1279.16 104.9V105.9C1284.44 105.9 1288.5 104.475 1291.22 101.54L1290.49 100.86ZM1279.16 104.9C1274.46 104.9 1270.56 103.487 1267.41 100.677C1264.26 97.8588 1261.82 93.603 1260.14 87.8594L1259.18 88.1406C1260.89 93.997 1263.41 98.4412 1266.75 101.423C1270.1 104.413 1274.25 105.9 1279.16 105.9V104.9ZM1260.13 87.8318L1257.13 79.4318L1256.18 79.7682L1259.18 88.1682L1260.13 87.8318ZM1257.14 79.4787C1256.14 75.4611 1254.91 72.5638 1253.43 70.8707L1252.68 71.5292C1254 73.0362 1255.17 75.7389 1256.17 79.7213L1257.14 79.4787ZM1253.43 70.8707C1251.9 69.1234 1249.54 68.3 1246.46 68.3V69.3C1249.37 69.3 1251.41 70.0766 1252.68 71.5292L1253.43 70.8707ZM1246.46 68.3C1243.06 68.3 1239.64 70.2106 1236.19 73.8567L1236.92 74.5433C1240.28 70.9894 1243.45 69.3 1246.46 69.3V68.3ZM1236.2 73.8464C1232.67 77.3822 1230.96 83.0419 1230.96 90.7H1231.96C1231.96 83.1581 1233.64 77.8177 1236.91 74.5535L1236.2 73.8464ZM1230.96 90.7C1230.96 98.0045 1233.09 104.704 1237.35 110.787L1238.17 110.213C1234.02 104.296 1231.96 97.7955 1231.96 90.7H1230.96ZM1237.36 110.802C1241.8 116.653 1248.34 122.785 1256.96 129.201L1257.55 128.399C1248.98 122.015 1242.52 115.947 1238.15 110.198L1237.36 110.802ZM1256.96 129.2C1265.73 135.78 1272.08 142.139 1276.04 148.271L1276.88 147.729C1272.83 141.461 1266.38 135.02 1257.56 128.4L1256.96 129.2ZM1276.04 148.28C1280.18 154.384 1282.26 161.782 1282.26 170.5H1283.26C1283.26 161.618 1281.13 154.016 1276.87 147.72L1276.04 148.28ZM1282.26 170.5C1282.26 178.595 1279.89 185.995 1275.15 192.712L1275.96 193.288C1280.82 186.405 1283.26 178.805 1283.26 170.5H1282.26ZM1275.15 192.712C1270.41 199.425 1263.48 204.874 1254.35 209.045L1254.76 209.955C1264.03 205.726 1271.1 200.175 1275.96 193.288L1275.15 192.712ZM1254.36 209.041C1245.24 213.007 1234.01 215 1220.66 215V216C1234.1 216 1245.47 213.993 1254.75 209.959L1254.36 209.041Z" fill="black"/>
</svg>
